<svg width="1400" height="800" viewBox="0 0 360 640" fill="none" xmlns="http://www.w3.org/2000/svg">
<g clip-path="url(#clip0_17_187)">
<rect width="1400" height="800" fill="white"/>
<path d="M64.9803 389.154C63.851 389.154 62.839 388.971 61.9443 388.604C61.0497 388.237 60.331 387.695 59.7883 386.976C59.2603 386.257 58.9817 385.392 58.9523 384.38H62.9563C63.015 384.952 63.213 385.392 63.5503 385.7C63.8877 385.993 64.3277 386.14 64.8703 386.14C65.4277 386.14 65.8677 386.015 66.1903 385.766C66.513 385.502 66.6743 385.143 66.6743 384.688C66.6743 384.307 66.5423 383.991 66.2783 383.742C66.029 383.493 65.7137 383.287 65.3323 383.126C64.9657 382.965 64.4377 382.781 63.7483 382.576C62.751 382.268 61.937 381.96 61.3063 381.652C60.6757 381.344 60.133 380.889 59.6783 380.288C59.2237 379.687 58.9963 378.902 58.9963 377.934C58.9963 376.497 59.517 375.375 60.5583 374.568C61.5997 373.747 62.9563 373.336 64.6283 373.336C66.3297 373.336 67.701 373.747 68.7423 374.568C69.7837 375.375 70.341 376.504 70.4143 377.956H66.3443C66.315 377.457 66.1317 377.069 65.7943 376.79C65.457 376.497 65.0243 376.35 64.4963 376.35C64.0417 376.35 63.675 376.475 63.3963 376.724C63.1177 376.959 62.9783 377.303 62.9783 377.758C62.9783 378.257 63.213 378.645 63.6823 378.924C64.1517 379.203 64.885 379.503 65.8823 379.826C66.8797 380.163 67.6863 380.486 68.3023 380.794C68.933 381.102 69.4757 381.549 69.9303 382.136C70.385 382.723 70.6123 383.478 70.6123 384.402C70.6123 385.282 70.385 386.081 69.9303 386.8C69.4903 387.519 68.845 388.091 67.9943 388.516C67.1437 388.941 66.139 389.154 64.9803 389.154ZM80.4735 376.592C81.8815 376.592 83.0108 377.061 83.8615 378C84.7121 378.924 85.1375 380.2 85.1375 381.828V389H81.3975V382.334C81.3975 381.513 81.1848 380.875 80.7595 380.42C80.3341 379.965 79.7621 379.738 79.0435 379.738C78.3248 379.738 77.7528 379.965 77.3275 380.42C76.9021 380.875 76.6895 381.513 76.6895 382.334V389H72.9275V372.72H76.6895V378.374C77.0708 377.831 77.5915 377.399 78.2515 377.076C78.9115 376.753 79.6521 376.592 80.4735 376.592ZM87.0037 382.84C87.0037 381.579 87.2384 380.471 87.7077 379.518C88.1917 378.565 88.8444 377.831 89.6657 377.318C90.487 376.805 91.4037 376.548 92.4157 376.548C93.281 376.548 94.0364 376.724 94.6817 377.076C95.3417 377.428 95.8477 377.89 96.1997 378.462V376.724H99.9617V389H96.1997V387.262C95.833 387.834 95.3197 388.296 94.6597 388.648C94.0144 389 93.259 389.176 92.3937 389.176C91.3964 389.176 90.487 388.919 89.6657 388.406C88.8444 387.878 88.1917 387.137 87.7077 386.184C87.2384 385.216 87.0037 384.101 87.0037 382.84ZM96.1997 382.862C96.1997 381.923 95.9357 381.183 95.4077 380.64C94.8944 380.097 94.2637 379.826 93.5157 379.826C92.7677 379.826 92.1297 380.097 91.6017 380.64C91.0884 381.168 90.8317 381.901 90.8317 382.84C90.8317 383.779 91.0884 384.527 91.6017 385.084C92.1297 385.627 92.7677 385.898 93.5157 385.898C94.2637 385.898 94.8944 385.627 95.4077 385.084C95.9357 384.541 96.1997 383.801 96.1997 382.862ZM110.185 389L106.445 383.852V389H102.683V372.72H106.445V381.718L110.163 376.724H114.805L109.701 382.884L114.849 389H110.185ZM118.175 375.448C117.515 375.448 116.972 375.257 116.547 374.876C116.136 374.48 115.931 373.996 115.931 373.424C115.931 372.837 116.136 372.353 116.547 371.972C116.972 371.576 117.515 371.378 118.175 371.378C118.82 371.378 119.348 371.576 119.759 371.972C120.184 372.353 120.397 372.837 120.397 373.424C120.397 373.996 120.184 374.48 119.759 374.876C119.348 375.257 118.82 375.448 118.175 375.448ZM120.045 376.724V389H116.283V376.724H120.045ZM126.533 372.72V389H122.771V372.72H126.533ZM147.738 389H143.976L137.684 379.474V389H133.922V373.556H137.684L143.976 383.126V373.556H147.738V389ZM162.037 382.664C162.037 383.016 162.015 383.383 161.971 383.764H153.457C153.515 384.527 153.757 385.113 154.183 385.524C154.623 385.92 155.158 386.118 155.789 386.118C156.727 386.118 157.38 385.722 157.747 384.93H161.751C161.545 385.737 161.171 386.463 160.629 387.108C160.101 387.753 159.433 388.259 158.627 388.626C157.82 388.993 156.918 389.176 155.921 389.176C154.718 389.176 153.647 388.919 152.709 388.406C151.77 387.893 151.037 387.159 150.509 386.206C149.981 385.253 149.717 384.138 149.717 382.862C149.717 381.586 149.973 380.471 150.487 379.518C151.015 378.565 151.748 377.831 152.687 377.318C153.625 376.805 154.703 376.548 155.921 376.548C157.109 376.548 158.165 376.797 159.089 377.296C160.013 377.795 160.731 378.506 161.245 379.43C161.773 380.354 162.037 381.432 162.037 382.664ZM158.187 381.674C158.187 381.029 157.967 380.515 157.527 380.134C157.087 379.753 156.537 379.562 155.877 379.562C155.246 379.562 154.711 379.745 154.271 380.112C153.845 380.479 153.581 380.999 153.479 381.674H158.187ZM170.863 385.81V389H168.949C167.585 389 166.522 388.67 165.759 388.01C164.997 387.335 164.615 386.243 164.615 384.732V379.848H163.119V376.724H164.615V373.732H168.377V376.724H170.841V379.848H168.377V384.776C168.377 385.143 168.465 385.407 168.641 385.568C168.817 385.729 169.111 385.81 169.521 385.81H170.863ZM176.983 381.256C176.983 379.731 177.313 378.374 177.973 377.186C178.633 375.983 179.55 375.052 180.723 374.392C181.911 373.717 183.253 373.38 184.749 373.38C186.582 373.38 188.152 373.864 189.457 374.832C190.762 375.8 191.635 377.12 192.075 378.792H187.939C187.631 378.147 187.191 377.655 186.619 377.318C186.062 376.981 185.424 376.812 184.705 376.812C183.546 376.812 182.608 377.215 181.889 378.022C181.17 378.829 180.811 379.907 180.811 381.256C180.811 382.605 181.17 383.683 181.889 384.49C182.608 385.297 183.546 385.7 184.705 385.7C185.424 385.7 186.062 385.531 186.619 385.194C187.191 384.857 187.631 384.365 187.939 383.72H192.075C191.635 385.392 190.762 386.712 189.457 387.68C188.152 388.633 186.582 389.11 184.749 389.11C183.253 389.11 181.911 388.78 180.723 388.12C179.55 387.445 178.633 386.514 177.973 385.326C177.313 384.138 176.983 382.781 176.983 381.256ZM199.967 389.176C198.764 389.176 197.679 388.919 196.711 388.406C195.757 387.893 195.002 387.159 194.445 386.206C193.902 385.253 193.631 384.138 193.631 382.862C193.631 381.601 193.909 380.493 194.467 379.54C195.024 378.572 195.787 377.831 196.755 377.318C197.723 376.805 198.808 376.548 200.011 376.548C201.213 376.548 202.299 376.805 203.267 377.318C204.235 377.831 204.997 378.572 205.555 379.54C206.112 380.493 206.391 381.601 206.391 382.862C206.391 384.123 206.105 385.238 205.533 386.206C204.975 387.159 204.205 387.893 203.223 388.406C202.255 388.919 201.169 389.176 199.967 389.176ZM199.967 385.92C200.685 385.92 201.294 385.656 201.793 385.128C202.306 384.6 202.563 383.845 202.563 382.862C202.563 381.879 202.313 381.124 201.815 380.596C201.331 380.068 200.729 379.804 200.011 379.804C199.277 379.804 198.669 380.068 198.185 380.596C197.701 381.109 197.459 381.865 197.459 382.862C197.459 383.845 197.693 384.6 198.163 385.128C198.647 385.656 199.248 385.92 199.967 385.92ZM212.148 378.77C212.588 378.095 213.138 377.567 213.798 377.186C214.458 376.79 215.192 376.592 215.998 376.592V380.574H214.964C214.026 380.574 213.322 380.779 212.852 381.19C212.383 381.586 212.148 382.29 212.148 383.302V389H208.386V376.724H212.148V378.77ZM221.559 378.462C221.925 377.89 222.431 377.428 223.077 377.076C223.722 376.724 224.477 376.548 225.343 376.548C226.355 376.548 227.271 376.805 228.093 377.318C228.914 377.831 229.559 378.565 230.029 379.518C230.513 380.471 230.755 381.579 230.755 382.84C230.755 384.101 230.513 385.216 230.029 386.184C229.559 387.137 228.914 387.878 228.093 388.406C227.271 388.919 226.355 389.176 225.343 389.176C224.492 389.176 223.737 389 223.077 388.648C222.431 388.296 221.925 387.841 221.559 387.284V394.852H217.797V376.724H221.559V378.462ZM226.927 382.84C226.927 381.901 226.663 381.168 226.135 380.64C225.621 380.097 224.983 379.826 224.221 379.826C223.473 379.826 222.835 380.097 222.307 380.64C221.793 381.183 221.537 381.923 221.537 382.862C221.537 383.801 221.793 384.541 222.307 385.084C222.835 385.627 223.473 385.898 224.221 385.898C224.969 385.898 225.607 385.627 226.135 385.084C226.663 384.527 226.927 383.779 226.927 382.84ZM238.316 389.176C237.114 389.176 236.028 388.919 235.06 388.406C234.107 387.893 233.352 387.159 232.794 386.206C232.252 385.253 231.98 384.138 231.98 382.862C231.98 381.601 232.259 380.493 232.816 379.54C233.374 378.572 234.136 377.831 235.104 377.318C236.072 376.805 237.158 376.548 238.36 376.548C239.563 376.548 240.648 376.805 241.616 377.318C242.584 377.831 243.347 378.572 243.904 379.54C244.462 380.493 244.74 381.601 244.74 382.862C244.74 384.123 244.454 385.238 243.882 386.206C243.325 387.159 242.555 387.893 241.572 388.406C240.604 388.919 239.519 389.176 238.316 389.176ZM238.316 385.92C239.035 385.92 239.644 385.656 240.142 385.128C240.656 384.6 240.912 383.845 240.912 382.862C240.912 381.879 240.663 381.124 240.164 380.596C239.68 380.068 239.079 379.804 238.36 379.804C237.627 379.804 237.018 380.068 236.534 380.596C236.05 381.109 235.808 381.865 235.808 382.862C235.808 383.845 236.043 384.6 236.512 385.128C236.996 385.656 237.598 385.92 238.316 385.92ZM250.498 378.77C250.938 378.095 251.488 377.567 252.148 377.186C252.808 376.79 253.541 376.592 254.348 376.592V380.574H253.314C252.375 380.574 251.671 380.779 251.202 381.19C250.733 381.586 250.498 382.29 250.498 383.302V389H246.736V376.724H250.498V378.77ZM255.398 382.84C255.398 381.579 255.633 380.471 256.102 379.518C256.586 378.565 257.239 377.831 258.06 377.318C258.882 376.805 259.798 376.548 260.81 376.548C261.676 376.548 262.431 376.724 263.076 377.076C263.736 377.428 264.242 377.89 264.594 378.462V376.724H268.356V389H264.594V387.262C264.228 387.834 263.714 388.296 263.054 388.648C262.409 389 261.654 389.176 260.788 389.176C259.791 389.176 258.882 388.919 258.06 388.406C257.239 387.878 256.586 387.137 256.102 386.184C255.633 385.216 255.398 384.101 255.398 382.84ZM264.594 382.862C264.594 381.923 264.33 381.183 263.802 380.64C263.289 380.097 262.658 379.826 261.91 379.826C261.162 379.826 260.524 380.097 259.996 380.64C259.483 381.168 259.226 381.901 259.226 382.84C259.226 383.779 259.483 384.527 259.996 385.084C260.524 385.627 261.162 385.898 261.91 385.898C262.658 385.898 263.289 385.627 263.802 385.084C264.33 384.541 264.594 383.801 264.594 382.862ZM277.92 385.81V389H276.006C274.642 389 273.579 388.67 272.816 388.01C272.053 387.335 271.672 386.243 271.672 384.732V379.848H270.176V376.724H271.672V373.732H275.434V376.724H277.898V379.848H275.434V384.776C275.434 385.143 275.522 385.407 275.698 385.568C275.874 385.729 276.167 385.81 276.578 385.81H277.92ZM281.907 375.448C281.247 375.448 280.705 375.257 280.279 374.876C279.869 374.48 279.663 373.996 279.663 373.424C279.663 372.837 279.869 372.353 280.279 371.972C280.705 371.576 281.247 371.378 281.907 371.378C282.553 371.378 283.081 371.576 283.491 371.972C283.917 372.353 284.129 372.837 284.129 373.424C284.129 373.996 283.917 374.48 283.491 374.876C283.081 375.257 282.553 375.448 281.907 375.448ZM283.777 376.724V389H280.015V376.724H283.777ZM292.092 389.176C290.889 389.176 289.804 388.919 288.836 388.406C287.882 387.893 287.127 387.159 286.57 386.206C286.027 385.253 285.756 384.138 285.756 382.862C285.756 381.601 286.034 380.493 286.592 379.54C287.149 378.572 287.912 377.831 288.88 377.318C289.848 376.805 290.933 376.548 292.136 376.548C293.338 376.548 294.424 376.805 295.392 377.318C296.36 377.831 297.122 378.572 297.68 379.54C298.237 380.493 298.516 381.601 298.516 382.862C298.516 384.123 298.23 385.238 297.658 386.206C297.1 387.159 296.33 387.893 295.348 388.406C294.38 388.919 293.294 389.176 292.092 389.176ZM292.092 385.92C292.81 385.92 293.419 385.656 293.918 385.128C294.431 384.6 294.688 383.845 294.688 382.862C294.688 381.879 294.438 381.124 293.94 380.596C293.456 380.068 292.854 379.804 292.136 379.804C291.402 379.804 290.794 380.068 290.31 380.596C289.826 381.109 289.584 381.865 289.584 382.862C289.584 383.845 289.818 384.6 290.288 385.128C290.772 385.656 291.373 385.92 292.092 385.92ZM307.991 376.592C309.429 376.592 310.573 377.061 311.423 378C312.289 378.924 312.721 380.2 312.721 381.828V389H308.981V382.334C308.981 381.513 308.769 380.875 308.343 380.42C307.918 379.965 307.346 379.738 306.627 379.738C305.909 379.738 305.337 379.965 304.911 380.42C304.486 380.875 304.273 381.513 304.273 382.334V389H300.511V376.724H304.273V378.352C304.655 377.809 305.168 377.384 305.813 377.076C306.459 376.753 307.185 376.592 307.991 376.592Z" fill="#08B539"/>
<path d="M359.5 547.5C358.3 568.7 118.333 617.333 -1.5 639H359.5C360 599.667 360.7 526.3 359.5 547.5Z" fill="#51CE32"/>
<path d="M96.303 403.68C96.791 403.784 97.183 404.028 97.479 404.412C97.775 404.788 97.923 405.22 97.923 405.708C97.923 406.412 97.675 406.972 97.179 407.388C96.691 407.796 96.007 408 95.127 408H91.203V399.576H94.995C95.851 399.576 96.519 399.772 96.999 400.164C97.487 400.556 97.731 401.088 97.731 401.76C97.731 402.256 97.599 402.668 97.335 402.996C97.079 403.324 96.735 403.552 96.303 403.68ZM93.255 402.984H94.599C94.935 402.984 95.191 402.912 95.367 402.768C95.551 402.616 95.643 402.396 95.643 402.108C95.643 401.82 95.551 401.6 95.367 401.448C95.191 401.296 94.935 401.22 94.599 401.22H93.255V402.984ZM94.767 406.344C95.111 406.344 95.375 406.268 95.559 406.116C95.751 405.956 95.847 405.728 95.847 405.432C95.847 405.136 95.747 404.904 95.547 404.736C95.355 404.568 95.087 404.484 94.743 404.484H93.255V406.344H94.767ZM102.269 399.576C103.157 399.576 103.933 399.752 104.597 400.104C105.261 400.456 105.773 400.952 106.133 401.592C106.501 402.224 106.685 402.956 106.685 403.788C106.685 404.612 106.501 405.344 106.133 405.984C105.773 406.624 105.257 407.12 104.585 407.472C103.921 407.824 103.149 408 102.269 408H99.1131V399.576H102.269ZM102.137 406.224C102.913 406.224 103.517 406.012 103.949 405.588C104.381 405.164 104.597 404.564 104.597 403.788C104.597 403.012 104.381 402.408 103.949 401.976C103.517 401.544 102.913 401.328 102.137 401.328H101.165V406.224H102.137ZM109.884 399.576V408H107.832V399.576H109.884ZM116.531 408L114.815 405.42L113.303 408H110.975L113.675 403.716L110.915 399.576H113.303L114.995 402.12L116.483 399.576H118.811L116.135 403.824L118.919 408H116.531ZM122.157 406.104L120.825 409.548H119.517L120.213 406.104H122.157ZM127.989 406.416H130.677V408H125.937V399.576H127.989V406.416ZM132.688 400.608C132.328 400.608 132.032 400.504 131.8 400.296C131.576 400.08 131.464 399.816 131.464 399.504C131.464 399.184 131.576 398.92 131.8 398.712C132.032 398.496 132.328 398.388 132.688 398.388C133.04 398.388 133.328 398.496 133.552 398.712C133.784 398.92 133.9 399.184 133.9 399.504C133.9 399.816 133.784 400.08 133.552 400.296C133.328 400.504 133.04 400.608 132.688 400.608ZM133.708 401.304V408H131.656V401.304H133.708ZM138.207 406.08L139.659 401.304H141.843L139.467 408H136.935L134.559 401.304H136.755L138.207 406.08ZM149.019 404.544C149.019 404.736 149.007 404.936 148.983 405.144H144.339C144.371 405.56 144.503 405.88 144.735 406.104C144.975 406.32 145.267 406.428 145.611 406.428C146.123 406.428 146.479 406.212 146.679 405.78H148.863C148.751 406.22 148.547 406.616 148.251 406.968C147.963 407.32 147.599 407.596 147.159 407.796C146.719 407.996 146.227 408.096 145.683 408.096C145.027 408.096 144.443 407.956 143.931 407.676C143.419 407.396 143.019 406.996 142.731 406.476C142.443 405.956 142.299 405.348 142.299 404.652C142.299 403.956 142.439 403.348 142.719 402.828C143.007 402.308 143.407 401.908 143.919 401.628C144.431 401.348 145.019 401.208 145.683 401.208C146.331 401.208 146.907 401.344 147.411 401.616C147.915 401.888 148.307 402.276 148.587 402.78C148.875 403.284 149.019 403.872 149.019 404.544ZM146.919 404.004C146.919 403.652 146.799 403.372 146.559 403.164C146.319 402.956 146.019 402.852 145.659 402.852C145.315 402.852 145.023 402.952 144.783 403.152C144.551 403.352 144.407 403.636 144.351 404.004H146.919ZM158.704 399.576V401.22H156.472V408H154.42V401.22H152.188V399.576H158.704ZM167.642 399.576L164.654 408H162.086L159.098 399.576H161.282L163.37 405.936L165.47 399.576H167.642ZM170.708 406.104L169.376 409.548H168.068L168.764 406.104H170.708ZM177.536 408.084C176.92 408.084 176.368 407.984 175.88 407.784C175.392 407.584 175 407.288 174.704 406.896C174.416 406.504 174.264 406.032 174.248 405.48H176.432C176.464 405.792 176.572 406.032 176.756 406.2C176.94 406.36 177.18 406.44 177.476 406.44C177.78 406.44 178.02 406.372 178.196 406.236C178.372 406.092 178.46 405.896 178.46 405.648C178.46 405.44 178.388 405.268 178.244 405.132C178.108 404.996 177.936 404.884 177.728 404.796C177.528 404.708 177.24 404.608 176.864 404.496C176.32 404.328 175.876 404.16 175.532 403.992C175.188 403.824 174.892 403.576 174.644 403.248C174.396 402.92 174.272 402.492 174.272 401.964C174.272 401.18 174.556 400.568 175.124 400.128C175.692 399.68 176.432 399.456 177.344 399.456C178.272 399.456 179.02 399.68 179.588 400.128C180.156 400.568 180.46 401.184 180.5 401.976H178.28C178.264 401.704 178.164 401.492 177.98 401.34C177.796 401.18 177.56 401.1 177.272 401.1C177.024 401.1 176.824 401.168 176.672 401.304C176.52 401.432 176.444 401.62 176.444 401.868C176.444 402.14 176.572 402.352 176.828 402.504C177.084 402.656 177.484 402.82 178.028 402.996C178.572 403.18 179.012 403.356 179.348 403.524C179.692 403.692 179.988 403.936 180.236 404.256C180.484 404.576 180.608 404.988 180.608 405.492C180.608 405.972 180.484 406.408 180.236 406.8C179.996 407.192 179.644 407.504 179.18 407.736C178.716 407.968 178.168 408.084 177.536 408.084ZM184.919 408.096C184.263 408.096 183.671 407.956 183.143 407.676C182.623 407.396 182.211 406.996 181.907 406.476C181.611 405.956 181.463 405.348 181.463 404.652C181.463 403.964 181.615 403.36 181.919 402.84C182.223 402.312 182.639 401.908 183.167 401.628C183.695 401.348 184.287 401.208 184.943 401.208C185.599 401.208 186.191 401.348 186.719 401.628C187.247 401.908 187.663 402.312 187.967 402.84C188.271 403.36 188.423 403.964 188.423 404.652C188.423 405.34 188.267 405.948 187.955 406.476C187.651 406.996 187.231 407.396 186.695 407.676C186.167 407.956 185.575 408.096 184.919 408.096ZM184.919 406.32C185.311 406.32 185.643 406.176 185.915 405.888C186.195 405.6 186.335 405.188 186.335 404.652C186.335 404.116 186.199 403.704 185.927 403.416C185.663 403.128 185.335 402.984 184.943 402.984C184.543 402.984 184.211 403.128 183.947 403.416C183.683 403.696 183.551 404.108 183.551 404.652C183.551 405.188 183.679 405.6 183.935 405.888C184.199 406.176 184.527 406.32 184.919 406.32ZM192.872 403.008H191.768V408H189.716V403.008H188.972V401.304H189.716V401.112C189.716 400.288 189.952 399.664 190.424 399.24C190.896 398.808 191.588 398.592 192.5 398.592C192.652 398.592 192.764 398.596 192.836 398.604V400.344C192.444 400.32 192.168 400.376 192.008 400.512C191.848 400.648 191.768 400.892 191.768 401.244V401.304H192.872V403.008ZM197.568 406.26V408H196.524C195.78 408 195.2 407.82 194.784 407.46C194.368 407.092 194.16 406.496 194.16 405.672V403.008H193.344V401.304H194.16V399.672H196.212V401.304H197.556V403.008H196.212V405.696C196.212 405.896 196.26 406.04 196.356 406.128C196.452 406.216 196.612 406.26 196.836 406.26H197.568ZM208.323 401.304L206.511 408H204.243L203.187 403.656L202.095 408H199.839L198.015 401.304H200.067L201.015 406.092L202.143 401.304H204.315L205.455 406.068L206.391 401.304H208.323ZM208.697 404.64C208.697 403.952 208.825 403.348 209.081 402.828C209.345 402.308 209.701 401.908 210.149 401.628C210.597 401.348 211.097 401.208 211.649 401.208C212.121 401.208 212.533 401.304 212.885 401.496C213.245 401.688 213.521 401.94 213.713 402.252V401.304H215.765V408H213.713V407.052C213.513 407.364 213.233 407.616 212.873 407.808C212.521 408 212.109 408.096 211.637 408.096C211.093 408.096 210.597 407.956 210.149 407.676C209.701 407.388 209.345 406.984 209.081 406.464C208.825 405.936 208.697 405.328 208.697 404.64ZM213.713 404.652C213.713 404.14 213.569 403.736 213.281 403.44C213.001 403.144 212.657 402.996 212.249 402.996C211.841 402.996 211.493 403.144 211.205 403.44C210.925 403.728 210.785 404.128 210.785 404.64C210.785 405.152 210.925 405.56 211.205 405.864C211.493 406.16 211.841 406.308 212.249 406.308C212.657 406.308 213.001 406.16 213.281 405.864C213.569 405.568 213.713 405.164 213.713 404.652ZM219.302 402.42C219.542 402.052 219.842 401.764 220.202 401.556C220.562 401.34 220.962 401.232 221.402 401.232V403.404H220.838C220.326 403.404 219.942 403.516 219.686 403.74C219.43 403.956 219.302 404.34 219.302 404.892V408H217.25V401.304H219.302V402.42ZM228.695 404.544C228.695 404.736 228.683 404.936 228.659 405.144H224.015C224.047 405.56 224.179 405.88 224.411 406.104C224.651 406.32 224.943 406.428 225.287 406.428C225.799 406.428 226.155 406.212 226.355 405.78H228.539C228.427 406.22 228.223 406.616 227.927 406.968C227.639 407.32 227.275 407.596 226.835 407.796C226.395 407.996 225.903 408.096 225.359 408.096C224.703 408.096 224.119 407.956 223.607 407.676C223.095 407.396 222.695 406.996 222.407 406.476C222.119 405.956 221.975 405.348 221.975 404.652C221.975 403.956 222.115 403.348 222.395 402.828C222.683 402.308 223.083 401.908 223.595 401.628C224.107 401.348 224.695 401.208 225.359 401.208C226.007 401.208 226.583 401.344 227.087 401.616C227.591 401.888 227.983 402.276 228.263 402.78C228.551 403.284 228.695 403.872 228.695 404.544ZM226.595 404.004C226.595 403.652 226.475 403.372 226.235 403.164C225.995 402.956 225.695 402.852 225.335 402.852C224.991 402.852 224.699 402.952 224.459 403.152C224.227 403.352 224.083 403.636 224.027 404.004H226.595ZM231.985 406.104L230.653 409.548H229.345L230.041 406.104H231.985ZM241.357 402.24C241.205 401.96 240.985 401.748 240.697 401.604C240.417 401.452 240.085 401.376 239.701 401.376C239.037 401.376 238.505 401.596 238.105 402.036C237.705 402.468 237.505 403.048 237.505 403.776C237.505 404.552 237.713 405.16 238.129 405.6C238.553 406.032 239.133 406.248 239.869 406.248C240.373 406.248 240.797 406.12 241.141 405.864C241.493 405.608 241.749 405.24 241.909 404.76H239.305V403.248H243.769V405.156C243.617 405.668 243.357 406.144 242.989 406.584C242.629 407.024 242.169 407.38 241.609 407.652C241.049 407.924 240.417 408.06 239.713 408.06C238.881 408.06 238.137 407.88 237.481 407.52C236.833 407.152 236.325 406.644 235.957 405.996C235.597 405.348 235.417 404.608 235.417 403.776C235.417 402.944 235.597 402.204 235.957 401.556C236.325 400.9 236.833 400.392 237.481 400.032C238.129 399.664 238.869 399.48 239.701 399.48C240.709 399.48 241.557 399.724 242.245 400.212C242.941 400.7 243.401 401.376 243.625 402.24H241.357ZM244.498 404.64C244.498 403.952 244.626 403.348 244.882 402.828C245.146 402.308 245.502 401.908 245.95 401.628C246.398 401.348 246.898 401.208 247.45 401.208C247.922 401.208 248.334 401.304 248.686 401.496C249.046 401.688 249.322 401.94 249.514 402.252V401.304H251.566V408H249.514V407.052C249.314 407.364 249.034 407.616 248.674 407.808C248.322 408 247.91 408.096 247.438 408.096C246.894 408.096 246.398 407.956 245.95 407.676C245.502 407.388 245.146 406.984 244.882 406.464C244.626 405.936 244.498 405.328 244.498 404.64ZM249.514 404.652C249.514 404.14 249.37 403.736 249.082 403.44C248.802 403.144 248.458 402.996 248.05 402.996C247.642 402.996 247.294 403.144 247.006 403.44C246.726 403.728 246.586 404.128 246.586 404.64C246.586 405.152 246.726 405.56 247.006 405.864C247.294 406.16 247.642 406.308 248.05 406.308C248.458 406.308 248.802 406.16 249.082 405.864C249.37 405.568 249.514 405.164 249.514 404.652ZM261.595 401.232C262.427 401.232 263.087 401.484 263.575 401.988C264.071 402.492 264.319 403.192 264.319 404.088V408H262.279V404.364C262.279 403.932 262.163 403.6 261.931 403.368C261.707 403.128 261.395 403.008 260.995 403.008C260.595 403.008 260.279 403.128 260.047 403.368C259.823 403.6 259.711 403.932 259.711 404.364V408H257.671V404.364C257.671 403.932 257.555 403.6 257.323 403.368C257.099 403.128 256.787 403.008 256.387 403.008C255.987 403.008 255.671 403.128 255.439 403.368C255.215 403.6 255.103 403.932 255.103 404.364V408H253.051V401.304H255.103V402.144C255.311 401.864 255.583 401.644 255.919 401.484C256.255 401.316 256.635 401.232 257.059 401.232C257.563 401.232 258.011 401.34 258.403 401.556C258.803 401.772 259.115 402.08 259.339 402.48C259.571 402.112 259.887 401.812 260.287 401.58C260.687 401.348 261.123 401.232 261.595 401.232ZM272.066 404.544C272.066 404.736 272.054 404.936 272.03 405.144H267.386C267.418 405.56 267.55 405.88 267.782 406.104C268.022 406.32 268.314 406.428 268.658 406.428C269.17 406.428 269.526 406.212 269.726 405.78H271.91C271.798 406.22 271.594 406.616 271.298 406.968C271.01 407.32 270.646 407.596 270.206 407.796C269.766 407.996 269.274 408.096 268.73 408.096C268.074 408.096 267.49 407.956 266.978 407.676C266.466 407.396 266.066 406.996 265.778 406.476C265.49 405.956 265.346 405.348 265.346 404.652C265.346 403.956 265.486 403.348 265.766 402.828C266.054 402.308 266.454 401.908 266.966 401.628C267.478 401.348 268.066 401.208 268.73 401.208C269.378 401.208 269.954 401.344 270.458 401.616C270.962 401.888 271.354 402.276 271.634 402.78C271.922 403.284 272.066 403.872 272.066 404.544ZM269.966 404.004C269.966 403.652 269.846 403.372 269.606 403.164C269.366 402.956 269.066 402.852 268.706 402.852C268.362 402.852 268.07 402.952 267.83 403.152C267.598 403.352 267.454 403.636 267.398 404.004H269.966ZM275.872 408.096C275.288 408.096 274.768 407.996 274.312 407.796C273.856 407.596 273.496 407.324 273.232 406.98C272.968 406.628 272.82 406.236 272.788 405.804H274.816C274.84 406.036 274.948 406.224 275.14 406.368C275.332 406.512 275.568 406.584 275.848 406.584C276.104 406.584 276.3 406.536 276.436 406.44C276.58 406.336 276.652 406.204 276.652 406.044C276.652 405.852 276.552 405.712 276.352 405.624C276.152 405.528 275.828 405.424 275.38 405.312C274.9 405.2 274.5 405.084 274.18 404.964C273.86 404.836 273.584 404.64 273.352 404.376C273.12 404.104 273.004 403.74 273.004 403.284C273.004 402.9 273.108 402.552 273.316 402.24C273.532 401.92 273.844 401.668 274.252 401.484C274.668 401.3 275.16 401.208 275.728 401.208C276.568 401.208 277.228 401.416 277.708 401.832C278.196 402.248 278.476 402.8 278.548 403.488H276.652C276.62 403.256 276.516 403.072 276.34 402.936C276.172 402.8 275.948 402.732 275.668 402.732C275.428 402.732 275.244 402.78 275.116 402.876C274.988 402.964 274.924 403.088 274.924 403.248C274.924 403.44 275.024 403.584 275.224 403.68C275.432 403.776 275.752 403.872 276.184 403.968C276.68 404.096 277.084 404.224 277.396 404.352C277.708 404.472 277.98 404.672 278.212 404.952C278.452 405.224 278.576 405.592 278.584 406.056C278.584 406.448 278.472 406.8 278.248 407.112C278.032 407.416 277.716 407.656 277.3 407.832C276.892 408.008 276.416 408.096 275.872 408.096ZM282.048 406.104L280.716 409.548H279.408L280.104 406.104H282.048ZM105.123 421.776C105.123 420.944 105.303 420.204 105.663 419.556C106.023 418.9 106.523 418.392 107.163 418.032C107.811 417.664 108.543 417.48 109.359 417.48C110.359 417.48 111.215 417.744 111.927 418.272C112.639 418.8 113.115 419.52 113.355 420.432H111.099C110.931 420.08 110.691 419.812 110.379 419.628C110.075 419.444 109.727 419.352 109.335 419.352C108.703 419.352 108.191 419.572 107.799 420.012C107.407 420.452 107.211 421.04 107.211 421.776C107.211 422.512 107.407 423.1 107.799 423.54C108.191 423.98 108.703 424.2 109.335 424.2C109.727 424.2 110.075 424.108 110.379 423.924C110.691 423.74 110.931 423.472 111.099 423.12H113.355C113.115 424.032 112.639 424.752 111.927 425.28C111.215 425.8 110.359 426.06 109.359 426.06C108.543 426.06 107.811 425.88 107.163 425.52C106.523 425.152 106.023 424.644 105.663 423.996C105.303 423.348 105.123 422.608 105.123 421.776ZM121.223 419.304V426H119.171V425.088C118.963 425.384 118.679 425.624 118.319 425.808C117.967 425.984 117.575 426.072 117.143 426.072C116.631 426.072 116.179 425.96 115.787 425.736C115.395 425.504 115.091 425.172 114.875 424.74C114.659 424.308 114.551 423.8 114.551 423.216V419.304H116.591V422.94C116.591 423.388 116.707 423.736 116.939 423.984C117.171 424.232 117.483 424.356 117.875 424.356C118.275 424.356 118.591 424.232 118.823 423.984C119.055 423.736 119.171 423.388 119.171 422.94V419.304H121.223ZM125.421 426.096C124.837 426.096 124.317 425.996 123.861 425.796C123.405 425.596 123.045 425.324 122.781 424.98C122.517 424.628 122.369 424.236 122.337 423.804H124.365C124.389 424.036 124.497 424.224 124.689 424.368C124.881 424.512 125.117 424.584 125.397 424.584C125.653 424.584 125.849 424.536 125.985 424.44C126.129 424.336 126.201 424.204 126.201 424.044C126.201 423.852 126.101 423.712 125.901 423.624C125.701 423.528 125.377 423.424 124.929 423.312C124.449 423.2 124.049 423.084 123.729 422.964C123.409 422.836 123.133 422.64 122.901 422.376C122.669 422.104 122.553 421.74 122.553 421.284C122.553 420.9 122.657 420.552 122.865 420.24C123.081 419.92 123.393 419.668 123.801 419.484C124.217 419.3 124.709 419.208 125.277 419.208C126.117 419.208 126.777 419.416 127.257 419.832C127.745 420.248 128.025 420.8 128.097 421.488H126.201C126.169 421.256 126.065 421.072 125.889 420.936C125.721 420.8 125.497 420.732 125.217 420.732C124.977 420.732 124.793 420.78 124.665 420.876C124.537 420.964 124.473 421.088 124.473 421.248C124.473 421.44 124.573 421.584 124.773 421.68C124.981 421.776 125.301 421.872 125.733 421.968C126.229 422.096 126.633 422.224 126.945 422.352C127.257 422.472 127.529 422.672 127.761 422.952C128.001 423.224 128.125 423.592 128.133 424.056C128.133 424.448 128.021 424.8 127.797 425.112C127.581 425.416 127.265 425.656 126.849 425.832C126.441 426.008 125.965 426.096 125.421 426.096ZM133.121 424.26V426H132.077C131.333 426 130.753 425.82 130.337 425.46C129.921 425.092 129.713 424.496 129.713 423.672V421.008H128.897V419.304H129.713V417.672H131.765V419.304H133.109V421.008H131.765V423.696C131.765 423.896 131.813 424.04 131.909 424.128C132.005 424.216 132.165 424.26 132.389 424.26H133.121ZM137.312 426.096C136.656 426.096 136.064 425.956 135.536 425.676C135.016 425.396 134.604 424.996 134.3 424.476C134.004 423.956 133.856 423.348 133.856 422.652C133.856 421.964 134.008 421.36 134.312 420.84C134.616 420.312 135.032 419.908 135.56 419.628C136.088 419.348 136.68 419.208 137.336 419.208C137.992 419.208 138.584 419.348 139.112 419.628C139.64 419.908 140.056 420.312 140.36 420.84C140.664 421.36 140.816 421.964 140.816 422.652C140.816 423.34 140.66 423.948 140.348 424.476C140.044 424.996 139.624 425.396 139.088 425.676C138.56 425.956 137.968 426.096 137.312 426.096ZM137.312 424.32C137.704 424.32 138.036 424.176 138.308 423.888C138.588 423.6 138.728 423.188 138.728 422.652C138.728 422.116 138.592 421.704 138.32 421.416C138.056 421.128 137.728 420.984 137.336 420.984C136.936 420.984 136.604 421.128 136.34 421.416C136.076 421.696 135.944 422.108 135.944 422.652C135.944 423.188 136.072 423.6 136.328 423.888C136.592 424.176 136.92 424.32 137.312 424.32ZM150.448 419.232C151.28 419.232 151.94 419.484 152.428 419.988C152.924 420.492 153.172 421.192 153.172 422.088V426H151.132V422.364C151.132 421.932 151.016 421.6 150.784 421.368C150.56 421.128 150.248 421.008 149.848 421.008C149.448 421.008 149.132 421.128 148.9 421.368C148.676 421.6 148.564 421.932 148.564 422.364V426H146.524V422.364C146.524 421.932 146.408 421.6 146.176 421.368C145.952 421.128 145.64 421.008 145.24 421.008C144.84 421.008 144.524 421.128 144.292 421.368C144.068 421.6 143.956 421.932 143.956 422.364V426H141.904V419.304H143.956V420.144C144.164 419.864 144.436 419.644 144.772 419.484C145.108 419.316 145.488 419.232 145.912 419.232C146.416 419.232 146.864 419.34 147.256 419.556C147.656 419.772 147.968 420.08 148.192 420.48C148.424 420.112 148.74 419.812 149.14 419.58C149.54 419.348 149.976 419.232 150.448 419.232ZM160.919 422.544C160.919 422.736 160.907 422.936 160.883 423.144H156.239C156.271 423.56 156.403 423.88 156.635 424.104C156.875 424.32 157.167 424.428 157.511 424.428C158.023 424.428 158.379 424.212 158.579 423.78H160.763C160.651 424.22 160.447 424.616 160.151 424.968C159.863 425.32 159.499 425.596 159.059 425.796C158.619 425.996 158.127 426.096 157.583 426.096C156.927 426.096 156.343 425.956 155.831 425.676C155.319 425.396 154.919 424.996 154.631 424.476C154.343 423.956 154.199 423.348 154.199 422.652C154.199 421.956 154.339 421.348 154.619 420.828C154.907 420.308 155.307 419.908 155.819 419.628C156.331 419.348 156.919 419.208 157.583 419.208C158.231 419.208 158.807 419.344 159.311 419.616C159.815 419.888 160.207 420.276 160.487 420.78C160.775 421.284 160.919 421.872 160.919 422.544ZM158.819 422.004C158.819 421.652 158.699 421.372 158.459 421.164C158.219 420.956 157.919 420.852 157.559 420.852C157.215 420.852 156.923 420.952 156.683 421.152C156.451 421.352 156.307 421.636 156.251 422.004H158.819ZM164.054 420.42C164.294 420.052 164.594 419.764 164.954 419.556C165.314 419.34 165.714 419.232 166.154 419.232V421.404H165.59C165.078 421.404 164.694 421.516 164.438 421.74C164.182 421.956 164.054 422.34 164.054 422.892V426H162.002V419.304H164.054V420.42ZM172.726 426.084C172.11 426.084 171.558 425.984 171.07 425.784C170.582 425.584 170.19 425.288 169.894 424.896C169.606 424.504 169.454 424.032 169.438 423.48H171.622C171.654 423.792 171.762 424.032 171.946 424.2C172.13 424.36 172.37 424.44 172.666 424.44C172.97 424.44 173.21 424.372 173.386 424.236C173.562 424.092 173.65 423.896 173.65 423.648C173.65 423.44 173.578 423.268 173.434 423.132C173.298 422.996 173.126 422.884 172.918 422.796C172.718 422.708 172.43 422.608 172.054 422.496C171.51 422.328 171.066 422.16 170.722 421.992C170.378 421.824 170.082 421.576 169.834 421.248C169.586 420.92 169.462 420.492 169.462 419.964C169.462 419.18 169.746 418.568 170.314 418.128C170.882 417.68 171.622 417.456 172.534 417.456C173.462 417.456 174.21 417.68 174.778 418.128C175.346 418.568 175.65 419.184 175.69 419.976H173.47C173.454 419.704 173.354 419.492 173.17 419.34C172.986 419.18 172.75 419.1 172.462 419.1C172.214 419.1 172.014 419.168 171.862 419.304C171.71 419.432 171.634 419.62 171.634 419.868C171.634 420.14 171.762 420.352 172.018 420.504C172.274 420.656 172.674 420.82 173.218 420.996C173.762 421.18 174.202 421.356 174.538 421.524C174.882 421.692 175.178 421.936 175.426 422.256C175.674 422.576 175.798 422.988 175.798 423.492C175.798 423.972 175.674 424.408 175.426 424.8C175.186 425.192 174.834 425.504 174.37 425.736C173.906 425.968 173.358 426.084 172.726 426.084ZM183.372 422.544C183.372 422.736 183.36 422.936 183.336 423.144H178.692C178.724 423.56 178.856 423.88 179.088 424.104C179.328 424.32 179.62 424.428 179.964 424.428C180.476 424.428 180.832 424.212 181.032 423.78H183.216C183.104 424.22 182.9 424.616 182.604 424.968C182.316 425.32 181.952 425.596 181.512 425.796C181.072 425.996 180.58 426.096 180.036 426.096C179.38 426.096 178.796 425.956 178.284 425.676C177.772 425.396 177.372 424.996 177.084 424.476C176.796 423.956 176.652 423.348 176.652 422.652C176.652 421.956 176.792 421.348 177.072 420.828C177.36 420.308 177.76 419.908 178.272 419.628C178.784 419.348 179.372 419.208 180.036 419.208C180.684 419.208 181.26 419.344 181.764 419.616C182.268 419.888 182.66 420.276 182.94 420.78C183.228 421.284 183.372 421.872 183.372 422.544ZM181.272 422.004C181.272 421.652 181.152 421.372 180.912 421.164C180.672 420.956 180.372 420.852 180.012 420.852C179.668 420.852 179.376 420.952 179.136 421.152C178.904 421.352 178.76 421.636 178.704 422.004H181.272ZM186.507 420.42C186.747 420.052 187.047 419.764 187.407 419.556C187.767 419.34 188.167 419.232 188.607 419.232V421.404H188.043C187.531 421.404 187.147 421.516 186.891 421.74C186.635 421.956 186.507 422.34 186.507 422.892V426H184.455V419.304H186.507V420.42ZM192.6 424.08L194.052 419.304H196.236L193.86 426H191.328L188.952 419.304H191.148L192.6 424.08ZM198.131 418.608C197.771 418.608 197.475 418.504 197.243 418.296C197.019 418.08 196.907 417.816 196.907 417.504C196.907 417.184 197.019 416.92 197.243 416.712C197.475 416.496 197.771 416.388 198.131 416.388C198.483 416.388 198.771 416.496 198.995 416.712C199.227 416.92 199.343 417.184 199.343 417.504C199.343 417.816 199.227 418.08 198.995 418.296C198.771 418.504 198.483 418.608 198.131 418.608ZM199.151 419.304V426H197.099V419.304H199.151ZM200.231 422.652C200.231 421.956 200.371 421.348 200.651 420.828C200.939 420.308 201.335 419.908 201.839 419.628C202.351 419.348 202.935 419.208 203.591 419.208C204.431 419.208 205.131 419.428 205.691 419.868C206.259 420.308 206.631 420.928 206.807 421.728H204.623C204.439 421.216 204.083 420.96 203.555 420.96C203.179 420.96 202.879 421.108 202.655 421.404C202.431 421.692 202.319 422.108 202.319 422.652C202.319 423.196 202.431 423.616 202.655 423.912C202.879 424.2 203.179 424.344 203.555 424.344C204.083 424.344 204.439 424.088 204.623 423.576H206.807C206.631 424.36 206.259 424.976 205.691 425.424C205.123 425.872 204.423 426.096 203.591 426.096C202.935 426.096 202.351 425.956 201.839 425.676C201.335 425.396 200.939 424.996 200.651 424.476C200.371 423.956 200.231 423.348 200.231 422.652ZM214.216 422.544C214.216 422.736 214.204 422.936 214.18 423.144H209.536C209.568 423.56 209.7 423.88 209.932 424.104C210.172 424.32 210.464 424.428 210.808 424.428C211.32 424.428 211.676 424.212 211.876 423.78H214.06C213.948 424.22 213.744 424.616 213.448 424.968C213.16 425.32 212.796 425.596 212.356 425.796C211.916 425.996 211.424 426.096 210.88 426.096C210.224 426.096 209.64 425.956 209.128 425.676C208.616 425.396 208.216 424.996 207.928 424.476C207.64 423.956 207.496 423.348 207.496 422.652C207.496 421.956 207.636 421.348 207.916 420.828C208.204 420.308 208.604 419.908 209.116 419.628C209.628 419.348 210.216 419.208 210.88 419.208C211.528 419.208 212.104 419.344 212.608 419.616C213.112 419.888 213.504 420.276 213.784 420.78C214.072 421.284 214.216 421.872 214.216 422.544ZM212.116 422.004C212.116 421.652 211.996 421.372 211.756 421.164C211.516 420.956 211.216 420.852 210.856 420.852C210.512 420.852 210.22 420.952 209.98 421.152C209.748 421.352 209.604 421.636 209.548 422.004H212.116ZM224.286 426L223.506 425.244C222.73 425.836 221.802 426.132 220.722 426.132C220.074 426.132 219.51 426.028 219.03 425.82C218.55 425.604 218.178 425.304 217.914 424.92C217.658 424.528 217.53 424.072 217.53 423.552C217.53 423.024 217.67 422.548 217.95 422.124C218.238 421.692 218.666 421.34 219.234 421.068C219.026 420.812 218.878 420.568 218.79 420.336C218.702 420.096 218.658 419.836 218.658 419.556C218.658 419.156 218.762 418.792 218.97 418.464C219.178 418.136 219.478 417.88 219.87 417.696C220.27 417.504 220.742 417.408 221.286 417.408C221.838 417.408 222.306 417.508 222.69 417.708C223.074 417.908 223.362 418.176 223.554 418.512C223.746 418.848 223.834 419.216 223.818 419.616H221.886C221.894 419.4 221.838 419.236 221.718 419.124C221.606 419.004 221.454 418.944 221.262 418.944C221.07 418.944 220.91 419 220.782 419.112C220.654 419.224 220.59 419.368 220.59 419.544C220.59 419.712 220.642 419.888 220.746 420.072C220.858 420.256 221.03 420.468 221.262 420.708L223.314 422.712C223.33 422.672 223.35 422.624 223.374 422.568C223.406 422.512 223.438 422.448 223.47 422.376L223.914 421.62H225.966L225.39 422.664C225.174 423.136 224.926 423.584 224.646 424.008L226.674 426H224.286ZM220.818 424.476C221.354 424.476 221.83 424.324 222.246 424.02L220.374 422.208C219.798 422.504 219.51 422.904 219.51 423.408C219.51 423.712 219.626 423.968 219.858 424.176C220.098 424.376 220.418 424.476 220.818 424.476ZM236.379 420.288C236.379 420.776 236.267 421.224 236.043 421.632C235.819 422.032 235.475 422.356 235.011 422.604C234.547 422.852 233.971 422.976 233.283 422.976H232.011V426H229.959V417.576H233.283C233.955 417.576 234.523 417.692 234.987 417.924C235.451 418.156 235.799 418.476 236.031 418.884C236.263 419.292 236.379 419.76 236.379 420.288ZM233.127 421.344C233.519 421.344 233.811 421.252 234.003 421.068C234.195 420.884 234.291 420.624 234.291 420.288C234.291 419.952 234.195 419.692 234.003 419.508C233.811 419.324 233.519 419.232 233.127 419.232H232.011V421.344H233.127ZM239.499 420.42C239.739 420.052 240.039 419.764 240.399 419.556C240.759 419.34 241.159 419.232 241.599 419.232V421.404H241.035C240.523 421.404 240.139 421.516 239.883 421.74C239.627 421.956 239.499 422.34 239.499 422.892V426H237.447V419.304H239.499V420.42ZM245.628 426.096C244.972 426.096 244.38 425.956 243.852 425.676C243.332 425.396 242.92 424.996 242.616 424.476C242.32 423.956 242.172 423.348 242.172 422.652C242.172 421.964 242.324 421.36 242.628 420.84C242.932 420.312 243.348 419.908 243.876 419.628C244.404 419.348 244.996 419.208 245.652 419.208C246.308 419.208 246.9 419.348 247.428 419.628C247.956 419.908 248.372 420.312 248.676 420.84C248.98 421.36 249.132 421.964 249.132 422.652C249.132 423.34 248.976 423.948 248.664 424.476C248.36 424.996 247.94 425.396 247.404 425.676C246.876 425.956 246.284 426.096 245.628 426.096ZM245.628 424.32C246.02 424.32 246.352 424.176 246.624 423.888C246.904 423.6 247.044 423.188 247.044 422.652C247.044 422.116 246.908 421.704 246.636 421.416C246.372 421.128 246.044 420.984 245.652 420.984C245.252 420.984 244.92 421.128 244.656 421.416C244.392 421.696 244.26 422.108 244.26 422.652C244.26 423.188 244.388 423.6 244.644 423.888C244.908 424.176 245.236 424.32 245.628 424.32ZM253.581 421.008H252.477V426H250.425V421.008H249.681V419.304H250.425V419.112C250.425 418.288 250.661 417.664 251.133 417.24C251.605 416.808 252.297 416.592 253.209 416.592C253.361 416.592 253.473 416.596 253.545 416.604V418.344C253.153 418.32 252.877 418.376 252.717 418.512C252.557 418.648 252.477 418.892 252.477 419.244V419.304H253.581V421.008ZM255.577 418.608C255.217 418.608 254.921 418.504 254.689 418.296C254.465 418.08 254.353 417.816 254.353 417.504C254.353 417.184 254.465 416.92 254.689 416.712C254.921 416.496 255.217 416.388 255.577 416.388C255.929 416.388 256.217 416.496 256.441 416.712C256.673 416.92 256.789 417.184 256.789 417.504C256.789 417.816 256.673 418.08 256.441 418.296C256.217 418.504 255.929 418.608 255.577 418.608ZM256.597 419.304V426H254.545V419.304H256.597ZM260.136 417.12V426H258.084V417.12H260.136ZM267.935 422.544C267.935 422.736 267.923 422.936 267.899 423.144H263.255C263.287 423.56 263.419 423.88 263.651 424.104C263.891 424.32 264.183 424.428 264.527 424.428C265.039 424.428 265.395 424.212 265.595 423.78H267.779C267.667 424.22 267.463 424.616 267.167 424.968C266.879 425.32 266.515 425.596 266.075 425.796C265.635 425.996 265.143 426.096 264.599 426.096C263.943 426.096 263.359 425.956 262.847 425.676C262.335 425.396 261.935 424.996 261.647 424.476C261.359 423.956 261.215 423.348 261.215 422.652C261.215 421.956 261.355 421.348 261.635 420.828C261.923 420.308 262.323 419.908 262.835 419.628C263.347 419.348 263.935 419.208 264.599 419.208C265.247 419.208 265.823 419.344 266.327 419.616C266.831 419.888 267.223 420.276 267.503 420.78C267.791 421.284 267.935 421.872 267.935 422.544ZM265.835 422.004C265.835 421.652 265.715 421.372 265.475 421.164C265.235 420.956 264.935 420.852 264.575 420.852C264.231 420.852 263.939 420.952 263.699 421.152C263.467 421.352 263.323 421.636 263.267 422.004H265.835Z" fill="#C4C4C4"/>
<g clip-path="url(#clip1_17_187)">
<path d="M120.908 306.917L121.132 301.867C123.476 300.615 126.091 299.954 128.748 299.941C125.091 302.928 125.548 308.687 123.068 312.704C122.285 313.951 121.231 315.006 119.984 315.79C118.737 316.575 117.33 317.07 115.866 317.237L112.805 319.109C112.385 316.77 112.477 314.368 113.076 312.068C113.675 309.769 114.766 307.626 116.274 305.788C117.13 304.765 118.111 303.854 119.195 303.076C119.928 305.007 120.908 306.917 120.908 306.917Z" fill="#F2F2F2"/>
<path d="M247.432 233.334C255.684 227.055 259.626 216.504 257.158 206.439C257.097 206.189 257.032 205.94 256.964 205.691C255.328 199.716 251.281 194.038 245.382 192.129C240.429 190.526 235.023 191.759 229.856 191.122C219.712 189.87 211.848 181.672 206.315 173.088C200.782 164.505 196.529 154.896 189.177 147.805C177.057 136.116 157.287 133.6 142.261 141.208C127.235 148.817 117.663 165.697 118.071 182.521C118.479 199.344 128.478 215.428 142.997 223.962C148.331 227.097 154.501 229.318 160.64 228.541C165.968 227.866 170.808 225.007 176.11 224.158C184.447 222.823 192.73 226.589 199.94 230.976C207.151 235.363 214.115 240.564 222.309 242.598C230.265 244.573 240.121 238.896 247.432 233.334Z" fill="#F2F2F2"/>
<path d="M182.134 158.202H99.9208C98.2062 158.204 96.5624 158.885 95.35 160.096C94.1376 161.308 93.4555 162.95 93.4536 164.662V205.535C93.4555 207.248 94.1376 208.89 95.35 210.101C96.5624 211.312 98.2062 211.994 99.9208 211.996H182.134C183.849 211.994 185.493 211.313 186.706 210.102C187.918 208.891 188.6 207.248 188.601 205.535V164.662C188.6 162.949 187.918 161.307 186.706 160.096C185.493 158.885 183.849 158.204 182.134 158.202Z" fill="white"/>
<path d="M182.135 212.314H99.9222C98.1232 212.312 96.3985 211.597 95.1265 210.327C93.8545 209.056 93.1389 207.333 93.1369 205.536V164.662C93.1389 162.865 93.8545 161.142 95.1265 159.871C96.3985 158.601 98.1232 157.886 99.9222 157.884H182.135C183.933 157.886 185.658 158.601 186.93 159.871C188.202 161.142 188.918 162.865 188.92 164.662V205.536C188.918 207.333 188.202 209.056 186.93 210.327C185.658 211.597 183.933 212.312 182.135 212.314ZM99.9222 158.519C98.2918 158.521 96.7288 159.169 95.576 160.32C94.4232 161.472 93.7747 163.033 93.7728 164.662V205.536C93.7747 207.165 94.4232 208.726 95.576 209.878C96.7288 211.029 98.2918 211.677 99.9222 211.679H182.135C183.765 211.677 185.328 211.029 186.481 209.878C187.634 208.726 188.282 207.165 188.284 205.536V164.662C188.282 163.033 187.634 161.472 186.481 160.32C185.328 159.169 183.765 158.521 182.135 158.519H99.9222Z" fill="#CCCCCC"/>
<path d="M185.916 223.613H107.131C106.45 223.613 105.797 223.343 105.315 222.862C104.834 222.381 104.563 221.729 104.563 221.048C104.563 220.368 104.834 219.716 105.315 219.235C105.797 218.754 106.45 218.484 107.131 218.484H185.916C186.597 218.484 187.25 218.754 187.732 219.235C188.213 219.716 188.484 220.368 188.484 221.048C188.484 221.729 188.213 222.381 187.732 222.862C187.25 223.343 186.597 223.613 185.916 223.613Z" fill="#E6E6E6"/>
<path d="M132.388 199.155C131.921 199.154 131.462 199.034 131.054 198.808C130.618 198.573 130.254 198.223 130.001 197.797C129.749 197.371 129.617 196.883 129.621 196.388V173.577C129.621 173.082 129.754 172.596 130.006 172.171C130.258 171.745 130.62 171.395 131.054 171.157C131.488 170.918 131.978 170.801 132.473 170.817C132.968 170.832 133.45 170.981 133.867 171.246L155.53 182.652C155.923 182.901 156.246 183.245 156.47 183.653C156.695 184.06 156.812 184.517 156.812 184.982C156.812 185.447 156.695 185.905 156.47 186.312C156.246 186.72 155.923 187.064 155.53 187.313L133.867 198.719C133.426 199.002 132.913 199.154 132.388 199.155Z" fill="#F2F2F2"/>
<path d="M259.603 187.782H225.247C224.53 187.781 223.843 187.497 223.337 186.99C222.83 186.484 222.545 185.798 222.544 185.082V168.001C222.545 167.286 222.83 166.6 223.337 166.093C223.843 165.587 224.53 165.303 225.247 165.302H259.603C260.319 165.303 261.006 165.587 261.513 166.093C262.02 166.6 262.305 167.286 262.305 168.001V185.082C262.305 185.798 262.02 186.484 261.513 186.99C261.006 187.497 260.319 187.781 259.603 187.782Z" fill="white"/>
<path d="M259.603 188.1H225.247C224.446 188.099 223.678 187.781 223.112 187.215C222.546 186.649 222.227 185.882 222.226 185.082V168.002C222.227 167.202 222.546 166.435 223.112 165.869C223.678 165.303 224.446 164.985 225.247 164.984H259.603C260.404 164.985 261.171 165.303 261.738 165.869C262.304 166.435 262.622 167.202 262.623 168.002V185.082C262.622 185.882 262.304 186.649 261.738 187.215C261.171 187.781 260.404 188.099 259.603 188.1ZM225.247 165.619C224.615 165.62 224.009 165.871 223.562 166.318C223.115 166.764 222.863 167.37 222.862 168.002V185.082C222.863 185.714 223.115 186.32 223.562 186.766C224.009 187.213 224.615 187.464 225.247 187.465H259.603C260.235 187.464 260.841 187.213 261.288 186.766C261.735 186.32 261.987 185.714 261.987 185.082V168.002C261.987 167.37 261.735 166.764 261.288 166.318C260.841 165.871 260.235 165.62 259.603 165.619H225.247Z" fill="#CCCCCC"/>
<path d="M253.958 196.14H230.815C230.135 196.14 229.482 195.869 229.001 195.388C228.52 194.907 228.25 194.255 228.25 193.575C228.25 192.896 228.52 192.244 229.001 191.763C229.482 191.282 230.135 191.011 230.815 191.01H253.958C254.639 191.01 255.293 191.281 255.774 191.762C256.256 192.243 256.526 192.895 256.526 193.575C256.526 194.256 256.256 194.908 255.774 195.389C255.293 195.87 254.639 196.14 253.958 196.14Z" fill="#E6E6E6"/>
<path d="M238.731 182.621C238.535 182.62 238.344 182.57 238.173 182.476C237.991 182.377 237.839 182.231 237.733 182.053C237.628 181.875 237.573 181.671 237.574 181.464V171.932C237.574 171.725 237.63 171.522 237.735 171.344C237.841 171.166 237.992 171.02 238.173 170.92C238.355 170.821 238.559 170.772 238.766 170.778C238.973 170.785 239.174 170.847 239.349 170.958L248.401 175.724C248.566 175.828 248.701 175.972 248.794 176.142C248.888 176.313 248.937 176.504 248.937 176.698C248.937 176.892 248.888 177.083 248.794 177.254C248.701 177.424 248.566 177.568 248.401 177.672L239.349 182.438C239.164 182.557 238.95 182.62 238.731 182.621Z" fill="#08B539"/>
<path d="M237.664 261.263H203.308C202.592 261.262 201.905 260.977 201.398 260.471C200.891 259.965 200.606 259.279 200.606 258.563V241.482C200.606 240.766 200.891 240.08 201.398 239.574C201.905 239.068 202.592 238.783 203.308 238.782H237.664C238.38 238.783 239.067 239.068 239.574 239.574C240.081 240.08 240.366 240.766 240.366 241.482V258.563C240.366 259.279 240.081 259.965 239.574 260.471C239.067 260.977 238.38 261.262 237.664 261.263Z" fill="white"/>
<path d="M237.664 261.58H203.308C202.507 261.579 201.74 261.261 201.173 260.696C200.607 260.13 200.288 259.363 200.288 258.563V241.482C200.288 240.682 200.607 239.915 201.173 239.35C201.74 238.784 202.507 238.466 203.308 238.465H237.664C238.465 238.466 239.232 238.784 239.799 239.35C240.365 239.915 240.683 240.682 240.684 241.482V258.563C240.683 259.363 240.365 260.13 239.799 260.696C239.232 261.261 238.465 261.579 237.664 261.58ZM203.308 239.1C202.676 239.101 202.07 239.352 201.623 239.799C201.176 240.245 200.924 240.851 200.923 241.482V258.563C200.924 259.195 201.176 259.8 201.623 260.247C202.07 260.693 202.676 260.944 203.308 260.945H237.664C238.296 260.944 238.902 260.693 239.349 260.247C239.796 259.8 240.048 259.195 240.048 258.563V241.482C240.048 240.851 239.796 240.245 239.349 239.799C238.902 239.352 238.296 239.101 237.664 239.1H203.308Z" fill="#CCCCCC"/>
<path d="M232.02 269.667H208.876C208.196 269.666 207.543 269.395 207.062 268.914C206.582 268.433 206.311 267.782 206.311 267.102C206.311 266.422 206.582 265.77 207.062 265.289C207.543 264.808 208.196 264.538 208.876 264.537H232.02C232.701 264.537 233.354 264.807 233.835 265.288C234.317 265.769 234.587 266.422 234.587 267.102C234.587 267.782 234.317 268.434 233.835 268.915C233.354 269.396 232.701 269.667 232.02 269.667Z" fill="#E6E6E6"/>
<path d="M216.708 256.623C216.513 256.623 216.321 256.573 216.151 256.478C215.968 256.38 215.816 256.234 215.711 256.056C215.605 255.878 215.55 255.674 215.552 255.467V245.934C215.552 245.728 215.607 245.525 215.713 245.347C215.818 245.169 215.969 245.023 216.151 244.923C216.332 244.824 216.537 244.775 216.744 244.781C216.951 244.788 217.152 244.85 217.326 244.96L226.379 249.727C226.543 249.831 226.678 249.975 226.772 250.145C226.866 250.315 226.915 250.506 226.915 250.701C226.915 250.895 226.866 251.086 226.772 251.256C226.678 251.427 226.543 251.571 226.379 251.675L217.326 256.441C217.142 256.56 216.927 256.623 216.708 256.623Z" fill="#08B539"/>
<path d="M121.003 202.167L103.419 202.285C103.419 202.285 93.4041 199.06 88.8623 199.734L87.1258 206.548L99.6006 210.677L121.312 207.53C121.799 207.776 122.342 207.889 122.888 207.859C123.433 207.828 123.96 207.654 124.416 207.355C124.873 207.057 125.243 206.643 125.488 206.156C125.734 205.669 125.847 205.126 125.815 204.581C125.784 204.037 125.61 203.51 125.31 203.054C125.01 202.599 124.595 202.23 124.107 201.985C123.619 201.74 123.076 201.628 122.531 201.66C121.986 201.692 121.459 201.867 121.003 202.167L121.003 202.167Z" fill="#A0616A"/>
<path d="M99.4517 211.337L78.5896 205.343L76.6902 198.274C76.1955 197.331 75.9746 196.268 76.0527 195.206C76.1308 194.144 76.5046 193.125 77.132 192.264C78.913 189.855 80.3052 192.248 82.8328 193.86C87.2637 194.172 98.3234 197.953 102.813 202.33L102.459 205.02L99.4517 211.337Z" fill="#3F3D56"/>
<path d="M117.603 205.566C117.136 205.565 116.678 205.446 116.27 205.219C115.833 204.984 115.469 204.635 115.216 204.208C114.964 203.782 114.833 203.295 114.836 202.799V179.988C114.836 179.493 114.969 179.008 115.221 178.582C115.474 178.156 115.836 177.806 116.269 177.568C116.703 177.33 117.193 177.212 117.688 177.228C118.183 177.244 118.665 177.392 119.083 177.657L140.745 189.063C141.138 189.312 141.462 189.656 141.686 190.064C141.91 190.471 142.027 190.929 142.027 191.394C142.027 191.859 141.91 192.316 141.686 192.723C141.462 193.131 141.138 193.475 140.745 193.724L119.083 205.13C118.641 205.414 118.128 205.565 117.603 205.566Z" fill="#08B539"/>
<path d="M103.05 315.439L107.489 315.439L109.6 298.339L103.05 298.339L103.05 315.439Z" fill="#A0616A"/>
<path d="M101.918 313.992L103.167 313.992L108.045 312.01L110.659 313.991H110.659C112.136 313.992 113.553 314.578 114.597 315.621C115.642 316.665 116.229 318.08 116.229 319.555V319.736L101.918 319.737L101.918 313.992Z" fill="#2F2E41"/>
<path d="M71.4456 311.266L75.6495 312.687L83.1399 297.167L76.9357 295.069L71.4456 311.266Z" fill="#A0616A"/>
<path d="M70.8381 309.532L72.0213 309.932L77.277 309.618L79.1168 312.332L79.1171 312.332C80.5163 312.805 81.6699 313.815 82.3242 315.138C82.9786 316.46 83.0801 317.989 82.6064 319.387L82.5483 319.558L68.9937 314.973L70.8381 309.532Z" fill="#2F2E41"/>
<path d="M76.59 241.783C76.59 241.783 76.0718 247.995 77.3674 253.949C78.663 259.902 81.4512 279.664 81.4512 279.664C75.8038 288.936 72.5308 298.06 71.9125 307.296L79.8614 307.931L91.243 280.955L92.3962 253.949L100.688 272.326L100.262 273.746C100.161 274.081 100.173 274.441 100.297 274.769C100.42 275.097 100.649 275.376 100.946 275.561C100.946 275.561 100.17 280.609 100.688 280.609C101.206 280.609 102.502 281.385 102.502 281.385C99.2715 291.431 98.8378 301.051 101.8 310.154L108.795 309.836L113.385 270.255L110.016 248.772L109.757 244.631L108.591 244.678L107.997 242.948L106.907 239.971L76.59 241.783Z" fill="#2F2E41"/>
<path d="M76.1422 243.088L76.096 243.023C73.6296 239.574 77.3391 231.286 77.8986 230.084L75.5421 229.32L73.4816 211.902L71.9746 205.885C71.4068 203.611 71.4551 201.226 72.1148 198.976C72.7744 196.726 74.0215 194.692 75.7281 193.083L79.2115 189.802L83.445 183.545H90.2718L92.6126 187.962C94.8821 188.486 96.8956 189.788 98.3024 191.643C99.7092 193.497 100.42 195.786 100.312 198.11L99.781 209.694L101.858 224.116L101.859 226.726L105.465 232.631L106.25 236.293C106.575 236.721 108.721 239.579 108.721 240.36C108.721 240.477 108.634 240.59 108.448 240.716C106.986 241.705 98.9047 243.721 95.3281 242.292C91.5182 240.77 76.3735 243.053 76.2209 243.076L76.1422 243.088Z" fill="#3F3D56"/>
<path d="M145.876 319.622C145.876 319.672 145.867 319.721 145.848 319.766C145.829 319.812 145.801 319.854 145.767 319.889C145.732 319.924 145.69 319.952 145.644 319.971C145.599 319.99 145.55 320 145.5 320H56.3784C56.278 320 56.1818 319.96 56.1108 319.889C56.0399 319.818 56 319.722 56 319.622C56 319.522 56.0399 319.426 56.1108 319.355C56.1818 319.284 56.278 319.244 56.3784 319.244H145.498C145.598 319.244 145.694 319.283 145.765 319.354C145.836 319.424 145.876 319.52 145.876 319.62V319.622Z" fill="#CCCCCC"/>
<path d="M87.7403 181.525C92.7337 181.525 96.7816 177.482 96.7816 172.494C96.7816 167.506 92.7337 163.462 87.7403 163.462C82.7469 163.462 78.6989 167.506 78.6989 172.494C78.6989 177.482 82.7469 181.525 87.7403 181.525Z" fill="#A0616A"/>
<path d="M121.303 179.428L107.354 190.123C107.354 190.123 97.4202 193.589 94.2059 196.864L96.9383 203.344L109.38 199.116L124.79 183.518C125.327 183.42 125.829 183.183 126.245 182.83C126.661 182.477 126.976 182.021 127.16 181.507C127.343 180.993 127.388 180.44 127.29 179.904C127.191 179.368 126.953 178.867 126.599 178.451C126.245 178.036 125.788 177.722 125.274 177.539C124.759 177.356 124.206 177.312 123.669 177.411C123.132 177.51 122.631 177.749 122.215 178.103C121.8 178.457 121.486 178.914 121.303 179.428Z" fill="#A0616A"/>
<path d="M109.66 199.731L90.2813 205.4L83.6185 203.038C82.6542 202.584 81.8361 201.87 81.2567 200.976C80.6774 200.082 80.3598 199.044 80.34 197.98C80.3043 194.985 82.8603 196.054 85.8492 195.815C89.5712 193.393 100.674 189.74 106.898 190.523L108.241 192.882L109.66 199.731Z" fill="#3F3D56"/>
<path d="M93.94 162.066C93.292 162.047 93.5144 160.827 92.9924 160.438C92.9898 160.45 92.9872 160.461 92.9845 160.473C92.916 160.737 92.7647 160.971 92.5527 161.142C92.3407 161.314 92.0793 161.412 91.807 161.424C91.5347 161.435 91.2658 161.359 91.04 161.207C90.8142 161.054 90.6434 160.833 90.5527 160.577C90.4661 160.28 90.3094 160.008 90.0957 159.784C89.882 159.56 89.6176 159.391 89.3248 159.29C89.2923 160.421 88.4359 161.402 87.4143 161.891C86.3927 162.379 85.2279 162.46 84.0954 162.477C82.9629 162.494 81.8142 162.456 80.716 162.733C79.6178 163.01 78.5497 163.661 78.0805 164.69C77.6113 165.72 77.946 167.138 78.972 167.617C78.1772 167.621 77.5028 168.276 77.228 169.021C77.0027 169.785 76.9439 170.589 77.0556 171.378C77.279 174.298 77.8236 177.442 79.9525 179.456C81.575 180.991 83.8974 181.61 86.1321 181.601C88.3668 181.592 87.9739 181.387 90.1346 180.817C90.1346 180.817 92.1888 174.934 91.6716 174.356C91.1543 173.777 90.7246 173.036 90.8182 172.266C90.9119 171.496 91.7404 170.806 92.4595 171.099C92.3386 170.791 92.2475 170.732 92.1904 170.747C92.2268 170.66 92.2585 170.57 92.2854 170.479C92.4208 170.015 92.6645 169.59 92.9964 169.238C93.3284 168.887 93.7391 168.619 94.1949 168.456C94.6553 168.307 95.1504 168.302 95.6136 168.442C96.0769 168.582 96.4862 168.861 96.7865 169.24C99.1524 167.023 97.6846 162.177 93.94 162.066Z" fill="#2F2E41"/>
<path d="M246.985 125.953H102.54C102.39 125.949 102.247 125.887 102.142 125.78C102.037 125.673 101.978 125.529 101.978 125.379C101.978 125.229 102.037 125.085 102.142 124.977C102.247 124.87 102.39 124.808 102.54 124.805H246.985C247.135 124.808 247.278 124.87 247.383 124.977C247.488 125.085 247.547 125.229 247.547 125.379C247.547 125.529 247.488 125.673 247.383 125.78C247.278 125.887 247.135 125.949 246.985 125.953Z" fill="#CACACA"/>
<path d="M112.373 121.875C114.232 121.875 115.739 120.336 115.739 118.438C115.739 116.539 114.232 115 112.373 115C110.514 115 109.007 116.539 109.007 118.438C109.007 120.336 110.514 121.875 112.373 121.875Z" fill="#3F3D56"/>
<path d="M124.002 121.875C125.861 121.875 127.369 120.336 127.369 118.438C127.369 116.539 125.861 115 124.002 115C122.143 115 120.636 116.539 120.636 118.438C120.636 120.336 122.143 121.875 124.002 121.875Z" fill="#3F3D56"/>
<path d="M135.631 121.875C137.491 121.875 138.998 120.336 138.998 118.438C138.998 116.539 137.491 115 135.631 115C133.772 115 132.265 116.539 132.265 118.438C132.265 120.336 133.772 121.875 135.631 121.875Z" fill="#3F3D56"/>
<path d="M239.983 115.852H231.722C231.559 115.855 231.403 115.923 231.288 116.039C231.173 116.156 231.109 116.313 231.109 116.477C231.109 116.64 231.173 116.798 231.288 116.914C231.403 117.031 231.559 117.098 231.722 117.102H239.983C240.147 117.098 240.303 117.031 240.418 116.914C240.532 116.798 240.596 116.64 240.596 116.477C240.596 116.313 240.532 116.156 240.418 116.039C240.303 115.923 240.147 115.855 239.983 115.852Z" fill="#3F3D56"/>
<path d="M239.983 118.197H231.722C231.559 118.201 231.403 118.268 231.288 118.385C231.173 118.502 231.109 118.659 231.109 118.822C231.109 118.986 231.173 119.143 231.288 119.26C231.403 119.377 231.559 119.444 231.722 119.447H239.983C240.147 119.444 240.303 119.377 240.418 119.26C240.532 119.143 240.596 118.986 240.596 118.822C240.596 118.659 240.532 118.502 240.418 118.385C240.303 118.268 240.147 118.201 239.983 118.197Z" fill="#3F3D56"/>
<path d="M239.983 120.54H231.722C231.559 120.543 231.403 120.61 231.288 120.727C231.173 120.844 231.109 121.001 231.109 121.164C231.109 121.328 231.173 121.485 231.288 121.602C231.403 121.719 231.559 121.786 231.722 121.789H239.983C240.147 121.786 240.303 121.719 240.418 121.602C240.532 121.485 240.596 121.328 240.596 121.164C240.596 121.001 240.532 120.844 240.418 120.727C240.303 120.61 240.147 120.543 239.983 120.54Z" fill="#3F3D56"/>
<path d="M170.17 158.202V166.828C170.17 167.257 169.419 167.616 168.408 167.715C168.4 167.714 168.391 167.715 168.383 167.718C168.214 167.73 168.036 167.74 167.855 167.74C167.297 167.75 166.743 167.66 166.217 167.473C166.17 167.454 166.122 167.432 166.074 167.413C166.03 167.387 165.982 167.365 165.938 167.34C165.686 167.19 165.54 167.016 165.54 166.828V158.202H170.17Z" fill="#CCCCCC"/>
<path d="M240.445 264.326C242.618 264.326 244.379 262.567 244.379 260.397C244.379 258.226 242.618 256.467 240.445 256.467C238.273 256.467 236.511 258.226 236.511 260.397C236.511 262.567 238.273 264.326 240.445 264.326Z" fill="#3F3D56"/>
<path d="M240.151 261.967C240.142 261.967 240.134 261.967 240.126 261.967C240.051 261.963 239.979 261.943 239.913 261.909C239.847 261.875 239.79 261.827 239.744 261.769L239.087 260.924C239.045 260.871 239.015 260.81 238.997 260.745C238.979 260.68 238.974 260.612 238.982 260.545C238.991 260.478 239.012 260.413 239.046 260.354C239.079 260.296 239.124 260.244 239.177 260.203L239.201 260.184C239.254 260.143 239.315 260.112 239.38 260.094C239.445 260.076 239.514 260.072 239.581 260.08C239.648 260.088 239.713 260.11 239.771 260.143C239.83 260.177 239.882 260.221 239.923 260.275C239.956 260.317 239.998 260.352 240.046 260.377C240.094 260.402 240.147 260.416 240.201 260.419C240.255 260.421 240.309 260.412 240.359 260.392C240.409 260.372 240.454 260.341 240.492 260.302L241.826 258.895C241.92 258.796 242.05 258.738 242.186 258.734C242.323 258.731 242.455 258.781 242.554 258.875L242.576 258.896C242.625 258.942 242.665 258.998 242.692 259.059C242.72 259.121 242.735 259.187 242.737 259.255C242.738 259.322 242.727 259.39 242.703 259.453C242.679 259.516 242.642 259.573 242.596 259.622L240.524 261.807C240.476 261.857 240.418 261.898 240.354 261.925C240.29 261.953 240.221 261.967 240.151 261.967Z" fill="white"/>
<path d="M262.066 191.276C264.239 191.276 266 189.517 266 187.347C266 185.176 264.239 183.417 262.066 183.417C259.894 183.417 258.132 185.176 258.132 187.347C258.132 189.517 259.894 191.276 262.066 191.276Z" fill="#3F3D56"/>
<path d="M261.772 188.917C261.763 188.917 261.755 188.917 261.746 188.917C261.672 188.913 261.6 188.893 261.534 188.859C261.468 188.825 261.411 188.777 261.365 188.719L260.708 187.874C260.666 187.821 260.636 187.76 260.618 187.695C260.6 187.63 260.595 187.562 260.603 187.495C260.612 187.428 260.633 187.363 260.666 187.304C260.7 187.246 260.745 187.194 260.798 187.153L260.822 187.134C260.875 187.093 260.936 187.062 261.001 187.044C261.066 187.026 261.134 187.022 261.201 187.03C261.269 187.038 261.333 187.06 261.392 187.093C261.451 187.127 261.503 187.171 261.544 187.225C261.577 187.267 261.619 187.302 261.667 187.327C261.715 187.352 261.768 187.366 261.822 187.369C261.876 187.371 261.93 187.362 261.98 187.342C262.03 187.322 262.075 187.291 262.113 187.252L263.447 185.845C263.541 185.746 263.671 185.688 263.807 185.684C263.944 185.681 264.076 185.731 264.175 185.825L264.197 185.846C264.246 185.892 264.285 185.948 264.313 186.009C264.341 186.071 264.356 186.138 264.358 186.205C264.359 186.273 264.348 186.34 264.324 186.403C264.299 186.466 264.263 186.523 264.217 186.572L262.145 188.757C262.097 188.807 262.039 188.848 261.975 188.875C261.911 188.903 261.842 188.917 261.772 188.917Z" fill="white"/>
</g>
<path d="M180.883 627.445C180.096 628.586 179.221 629.156 178.258 629.156C177.565 629.156 177.003 628.872 176.57 628.305C176.138 627.737 175.922 627.008 175.922 626.117C175.922 624.909 176.237 623.703 176.867 622.5C177.503 621.292 178.32 620.315 179.32 619.57C180.32 618.826 181.299 618.453 182.258 618.453C182.878 618.453 183.37 618.661 183.734 619.078C184.104 619.49 184.289 620.044 184.289 620.742C184.289 622.367 183.482 623.659 181.867 624.617V627.828C181.867 628.135 181.885 628.341 181.922 628.445C181.964 628.549 182.07 628.602 182.242 628.602C182.628 628.602 183.081 628.26 183.602 627.578L183.852 627.781C183.492 628.297 183.167 628.659 182.875 628.867C182.583 629.076 182.276 629.18 181.953 629.18C181.599 629.18 181.331 629.083 181.148 628.891C180.966 628.698 180.878 628.216 180.883 627.445ZM181.867 624.188C182.445 623.896 182.885 623.492 183.188 622.977C183.495 622.456 183.648 621.883 183.648 621.258C183.648 620.596 183.456 620.073 183.07 619.688C182.685 619.302 182.172 619.109 181.531 619.109C180.365 619.109 179.299 619.727 178.336 620.961C177.378 622.195 176.898 623.669 176.898 625.383C176.898 626.32 177.068 627.076 177.406 627.648C177.745 628.221 178.182 628.508 178.719 628.508C178.88 628.508 179.039 628.484 179.195 628.438C179.357 628.385 179.513 628.312 179.664 628.219C179.82 628.12 179.971 627.997 180.117 627.852C180.263 627.706 180.427 627.495 180.609 627.219C180.792 626.938 180.883 626.758 180.883 626.68V624.984C180.706 625.005 180.555 625.016 180.43 625.016C179.888 625.016 179.456 624.857 179.133 624.539C178.815 624.216 178.656 623.789 178.656 623.258C178.656 622.742 178.812 622.24 179.125 621.75C179.443 621.255 179.878 620.878 180.43 620.617L180.547 620.789C179.755 621.451 179.359 622.177 179.359 622.969C179.359 623.438 179.484 623.812 179.734 624.094C179.99 624.37 180.333 624.508 180.766 624.508H180.883V621.352L181.867 620.82V624.188ZM189.289 626.188C189.82 625.651 190.339 625.383 190.844 625.383C191.245 625.383 191.562 625.523 191.797 625.805C192.036 626.086 192.156 626.458 192.156 626.922C192.156 627.516 191.961 628.034 191.57 628.477C191.185 628.919 190.745 629.141 190.25 629.141C189.891 629.141 189.57 629.034 189.289 628.82V631.828C189.289 632.448 189.117 632.932 188.773 633.281C188.43 633.635 188.01 633.812 187.516 633.812C186.995 633.812 186.589 633.589 186.297 633.141L186.938 632.508L187.07 632.617C187.034 632.711 187.016 632.786 187.016 632.844C187.016 633.036 187.081 633.203 187.211 633.344C187.336 633.49 187.495 633.562 187.688 633.562C188.203 633.562 188.461 633.044 188.461 632.008V626.68C188.273 627.112 188.029 627.523 187.727 627.914L187.5 627.719C187.927 627.135 188.247 626.474 188.461 625.734L189.289 625.32V626.188ZM189.289 628.422C189.555 628.677 189.87 628.805 190.234 628.805C190.573 628.805 190.859 628.659 191.094 628.367C191.333 628.076 191.453 627.711 191.453 627.273C191.453 626.898 191.349 626.599 191.141 626.375C190.938 626.151 190.677 626.039 190.359 626.039C189.948 626.039 189.591 626.258 189.289 626.695V628.422ZM193.336 627.766C192.763 628.672 192.003 629.18 191.055 629.289L190.984 629.109C191.823 628.922 192.529 628.411 193.102 627.578L193.336 627.766ZM197.188 627.766C196.599 628.693 196.008 629.156 195.414 629.156C194.805 629.156 194.5 628.81 194.5 628.117C194.5 627.555 194.768 626.943 195.305 626.281C195.211 626.302 195.044 626.312 194.805 626.312C194.648 626.312 194.484 626.281 194.312 626.219C194.047 626.797 193.695 627.362 193.258 627.914L193.016 627.719C193.505 627.01 193.932 626.206 194.297 625.305C194.797 625.539 195.19 625.656 195.477 625.656C195.747 625.656 195.982 625.549 196.18 625.336L196.312 625.43C195.995 625.826 195.74 626.227 195.547 626.633C195.354 627.034 195.258 627.477 195.258 627.961C195.258 628.112 195.307 628.255 195.406 628.391C195.505 628.521 195.615 628.586 195.734 628.586C195.932 628.586 196.122 628.505 196.305 628.344C196.487 628.182 196.703 627.927 196.953 627.578L197.188 627.766ZM196.844 627.719C197.521 626.755 198.076 626.133 198.508 625.852C198.94 625.57 199.393 625.43 199.867 625.43C200.32 625.43 200.674 625.549 200.93 625.789C201.19 626.029 201.32 626.362 201.32 626.789C201.32 627.398 201.076 627.956 200.586 628.461C200.096 628.961 199.526 629.211 198.875 629.211C198.453 629.211 198.115 629.086 197.859 628.836C197.609 628.581 197.484 628.258 197.484 627.867C197.484 627.659 197.5 627.471 197.531 627.305C197.453 627.393 197.31 627.596 197.102 627.914L196.844 627.719ZM199.383 628.695C199.779 628.695 200.094 628.552 200.328 628.266C200.562 627.979 200.68 627.599 200.68 627.125C200.68 626.714 200.57 626.393 200.352 626.164C200.133 625.93 199.844 625.812 199.484 625.812C199.104 625.812 198.799 625.951 198.57 626.227C198.346 626.503 198.234 626.888 198.234 627.383C198.234 628.258 198.617 628.695 199.383 628.695ZM202.203 627.766C201.786 628.359 201.393 628.753 201.023 628.945C200.654 629.133 200.284 629.247 199.914 629.289L199.852 629.109C200.711 628.917 201.409 628.406 201.945 627.578L202.203 627.766ZM202.961 622.758C202.961 622.44 203.055 622.19 203.242 622.008C203.43 621.826 203.672 621.734 203.969 621.734C204.609 621.734 205.177 622.06 205.672 622.711C206.172 623.362 206.422 624.195 206.422 625.211C206.422 626.326 206.154 627.263 205.617 628.023C205.081 628.779 204.469 629.156 203.781 629.156C203.396 629.156 203.083 629.039 202.844 628.805C202.604 628.565 202.484 628.279 202.484 627.945V627.672C202.484 627.526 202.49 627.43 202.5 627.383L202.133 627.898L201.875 627.719C202.901 626.13 203.867 625.336 204.773 625.336C205.258 625.336 205.63 625.539 205.891 625.945C205.922 625.716 205.938 625.497 205.938 625.289C205.938 624.591 205.721 623.956 205.289 623.383C204.857 622.81 204.354 622.523 203.781 622.523C203.49 622.523 203.216 622.602 202.961 622.758ZM204.195 628.586C204.591 628.586 204.948 628.388 205.266 627.992C205.589 627.591 205.75 627.154 205.75 626.68C205.75 626.367 205.659 626.122 205.477 625.945C205.299 625.763 205.06 625.672 204.758 625.672C204.357 625.672 204.003 625.857 203.695 626.227C203.388 626.596 203.234 627.003 203.234 627.445C203.234 627.784 203.323 628.06 203.5 628.273C203.677 628.482 203.909 628.586 204.195 628.586ZM207.055 627.766C206.482 628.672 205.721 629.18 204.773 629.289L204.703 629.109C205.552 628.917 206.253 628.406 206.805 627.578L207.055 627.766ZM212.555 627.766C211.924 628.693 211.323 629.156 210.75 629.156C210.557 629.156 210.409 629.094 210.305 628.969C210.206 628.839 210.156 628.56 210.156 628.133V627.477C209.594 628.305 209.198 628.805 208.969 628.977C208.74 629.143 208.523 629.227 208.32 629.227C208.107 629.227 207.94 629.154 207.82 629.008C207.706 628.862 207.648 628.523 207.648 627.992V626.711C207.424 627.211 207.195 627.607 206.961 627.898L206.703 627.719C207.167 627.052 207.482 626.38 207.648 625.703L208.43 625.305V628.133C208.43 628.336 208.44 628.474 208.461 628.547C208.487 628.615 208.552 628.648 208.656 628.648C208.771 628.648 208.919 628.56 209.102 628.383C209.289 628.206 209.51 627.922 209.766 627.531C210.026 627.141 210.156 626.927 210.156 626.891V625.703L210.945 625.305V627.75C210.945 628.073 210.956 628.294 210.977 628.414C211.003 628.529 211.07 628.586 211.18 628.586C211.435 628.586 211.815 628.245 212.32 627.562L212.555 627.766ZM216.57 627.766C215.987 628.693 215.234 629.156 214.312 629.156C213.865 629.156 213.503 629.01 213.227 628.719C212.951 628.422 212.812 628.008 212.812 627.477L212.828 627.414L212.477 627.898L212.219 627.719C212.99 626.583 213.539 625.911 213.867 625.703C214.201 625.49 214.531 625.383 214.859 625.383C215.401 625.383 215.794 625.57 216.039 625.945C215.966 626.232 215.797 626.44 215.531 626.57C215.302 626.003 214.966 625.719 214.523 625.719C214.263 625.719 214.026 625.839 213.812 626.078C213.604 626.318 213.5 626.625 213.5 627C213.5 627.432 213.625 627.805 213.875 628.117C214.125 628.43 214.443 628.586 214.828 628.586C215.359 628.586 215.854 628.25 216.312 627.578L216.57 627.766ZM220.055 627.75C219.466 628.688 218.844 629.156 218.188 629.156C217.875 629.156 217.68 629.083 217.602 628.938C217.523 628.786 217.484 628.547 217.484 628.219V626.328C217.135 626.927 216.794 627.451 216.461 627.898L216.203 627.719C216.396 627.432 216.56 627.182 216.695 626.969C216.831 626.755 216.995 626.477 217.188 626.133C217.385 625.784 217.484 625.589 217.484 625.547V622.344L218.266 621.578V624.555L219.469 622.664L219.773 622.891L218.266 625.273V627.672C218.266 628.036 218.281 628.281 218.312 628.406C218.344 628.526 218.43 628.586 218.57 628.586C218.924 628.586 219.346 628.24 219.836 627.547L220.055 627.75ZM223.719 627.719C224.396 626.755 224.951 626.133 225.383 625.852C225.815 625.57 226.268 625.43 226.742 625.43C227.195 625.43 227.549 625.549 227.805 625.789C228.065 626.029 228.195 626.362 228.195 626.789C228.195 627.398 227.951 627.956 227.461 628.461C226.971 628.961 226.401 629.211 225.75 629.211C225.328 629.211 224.99 629.086 224.734 628.836C224.484 628.581 224.359 628.258 224.359 627.867C224.359 627.659 224.375 627.471 224.406 627.305C224.328 627.393 224.185 627.596 223.977 627.914L223.719 627.719ZM226.258 628.695C226.654 628.695 226.969 628.552 227.203 628.266C227.438 627.979 227.555 627.599 227.555 627.125C227.555 626.714 227.445 626.393 227.227 626.164C227.008 625.93 226.719 625.812 226.359 625.812C225.979 625.812 225.674 625.951 225.445 626.227C225.221 626.503 225.109 626.888 225.109 627.383C225.109 628.258 225.492 628.695 226.258 628.695ZM229.078 627.766C228.661 628.359 228.268 628.753 227.898 628.945C227.529 629.133 227.159 629.247 226.789 629.289L226.727 629.109C227.586 628.917 228.284 628.406 228.82 627.578L229.078 627.766ZM228.797 627.656C228.896 627.5 228.995 627.336 229.094 627.164C229.193 626.987 229.336 626.703 229.523 626.312C229.711 625.922 229.805 625.698 229.805 625.641V622.133C229.805 621.523 230.005 620.984 230.406 620.516C230.812 620.047 231.273 619.812 231.789 619.812C232.398 619.812 232.703 620.096 232.703 620.664C232.703 621.164 232.562 621.745 232.281 622.406C232 623.068 231.435 624.07 230.586 625.414V628.68C230.831 628.664 231.052 628.591 231.25 628.461C231.448 628.331 231.74 627.987 232.125 627.43L232.367 627.625C231.763 628.625 231.169 629.125 230.586 629.125V631.828C230.586 632.427 230.419 632.906 230.086 633.266C229.758 633.63 229.349 633.812 228.859 633.812C228.344 633.812 227.94 633.589 227.648 633.141L228.289 632.508L228.414 632.617C228.383 632.716 228.367 632.792 228.367 632.844C228.367 633.042 228.43 633.211 228.555 633.352C228.68 633.492 228.841 633.562 229.039 633.562C229.549 633.562 229.805 633.044 229.805 632.008V629.125C229.544 629.083 229.279 628.966 229.008 628.773C229.06 628.549 229.177 628.326 229.359 628.102C229.505 628.336 229.654 628.482 229.805 628.539V626.469C229.596 626.974 229.336 627.44 229.023 627.867L228.797 627.656ZM230.586 624.648C231.57 623.07 232.062 621.807 232.062 620.859C232.062 620.385 231.891 620.148 231.547 620.148C231.292 620.148 231.068 620.284 230.875 620.555C230.682 620.82 230.586 621.172 230.586 621.609V624.648ZM238.711 626.188C239.242 625.651 239.76 625.383 240.266 625.383C240.667 625.383 240.984 625.523 241.219 625.805C241.458 626.086 241.578 626.458 241.578 626.922C241.578 627.516 241.383 628.034 240.992 628.477C240.607 628.919 240.167 629.141 239.672 629.141C239.312 629.141 238.992 629.034 238.711 628.82V631.828C238.711 632.448 238.539 632.932 238.195 633.281C237.852 633.635 237.432 633.812 236.938 633.812C236.417 633.812 236.01 633.589 235.719 633.141L236.359 632.508L236.492 632.617C236.456 632.711 236.438 632.786 236.438 632.844C236.438 633.036 236.503 633.203 236.633 633.344C236.758 633.49 236.917 633.562 237.109 633.562C237.625 633.562 237.883 633.044 237.883 632.008V626.68C237.695 627.112 237.451 627.523 237.148 627.914L236.922 627.719C237.349 627.135 237.669 626.474 237.883 625.734L238.711 625.32V626.188ZM238.711 628.422C238.977 628.677 239.292 628.805 239.656 628.805C239.995 628.805 240.281 628.659 240.516 628.367C240.755 628.076 240.875 627.711 240.875 627.273C240.875 626.898 240.771 626.599 240.562 626.375C240.359 626.151 240.099 626.039 239.781 626.039C239.37 626.039 239.013 626.258 238.711 626.695V628.422ZM242.758 627.766C242.185 628.672 241.424 629.18 240.477 629.289L240.406 629.109C241.245 628.922 241.951 628.411 242.523 627.578L242.758 627.766ZM246.609 627.766C246.021 628.693 245.43 629.156 244.836 629.156C244.227 629.156 243.922 628.81 243.922 628.117C243.922 627.555 244.19 626.943 244.727 626.281C244.633 626.302 244.466 626.312 244.227 626.312C244.07 626.312 243.906 626.281 243.734 626.219C243.469 626.797 243.117 627.362 242.68 627.914L242.438 627.719C242.927 627.01 243.354 626.206 243.719 625.305C244.219 625.539 244.612 625.656 244.898 625.656C245.169 625.656 245.404 625.549 245.602 625.336L245.734 625.43C245.417 625.826 245.161 626.227 244.969 626.633C244.776 627.034 244.68 627.477 244.68 627.961C244.68 628.112 244.729 628.255 244.828 628.391C244.927 628.521 245.036 628.586 245.156 628.586C245.354 628.586 245.544 628.505 245.727 628.344C245.909 628.182 246.125 627.927 246.375 627.578L246.609 627.766ZM250.789 627.766C250.482 628.266 250.146 628.63 249.781 628.859C249.417 629.083 248.938 629.195 248.344 629.195C247.911 629.195 247.568 629.068 247.312 628.812C247.062 628.552 246.938 628.188 246.938 627.719C246.938 627.594 246.948 627.461 246.969 627.32C246.781 627.56 246.638 627.753 246.539 627.898L246.281 627.719C246.958 626.76 247.479 626.133 247.844 625.836C248.208 625.534 248.583 625.383 248.969 625.383C249.182 625.383 249.357 625.445 249.492 625.57C249.633 625.695 249.703 625.857 249.703 626.055C249.703 626.732 249.107 627.398 247.914 628.055C248.076 628.43 248.411 628.617 248.922 628.617C249.167 628.617 249.438 628.529 249.734 628.352C250.036 628.174 250.31 627.917 250.555 627.578L250.789 627.766ZM247.766 627.75C248.63 627.328 249.062 626.859 249.062 626.344C249.062 626.188 249.018 626.06 248.93 625.961C248.846 625.862 248.732 625.812 248.586 625.812C248.32 625.812 248.096 625.935 247.914 626.18C247.732 626.424 247.641 626.719 247.641 627.062C247.641 627.25 247.661 627.409 247.703 627.539C247.745 627.664 247.766 627.734 247.766 627.75ZM258.453 627.766C257.844 628.693 257.229 629.156 256.609 629.156C256.432 629.156 256.294 629.099 256.195 628.984C256.102 628.865 256.055 628.581 256.055 628.133V626.312C256.055 626.12 255.979 626.023 255.828 626.023C255.74 626.023 255.646 626.06 255.547 626.133C255.448 626.201 255.341 626.305 255.227 626.445C255.117 626.586 254.969 626.818 254.781 627.141C254.594 627.458 254.5 627.641 254.5 627.688V628.922L253.719 629.305V626.453C253.719 626.219 253.638 626.102 253.477 626.102C253.341 626.102 253.193 626.174 253.031 626.32C252.87 626.466 252.685 626.719 252.477 627.078C252.268 627.438 252.164 627.641 252.164 627.688V628.922L251.383 629.305V626.711C251.221 627.122 250.987 627.523 250.68 627.914L250.438 627.719C250.896 627.099 251.211 626.432 251.383 625.719L252.164 625.352V626.969C252.758 625.953 253.318 625.445 253.844 625.445C254.062 625.445 254.227 625.531 254.336 625.703C254.445 625.875 254.5 626.297 254.5 626.969C254.828 626.401 255.117 626.005 255.367 625.781C255.622 625.557 255.888 625.445 256.164 625.445C256.612 625.445 256.836 625.75 256.836 626.359V627.797C256.836 628.161 256.854 628.385 256.891 628.469C256.927 628.547 256.99 628.586 257.078 628.586C257.312 628.586 257.69 628.245 258.211 627.562L258.453 627.766ZM260.109 623.828L259.562 624.523L259.008 623.828L259.562 623.156L260.109 623.828ZM261.453 627.766C261.156 628.214 260.852 628.557 260.539 628.797C260.227 629.036 259.945 629.156 259.695 629.156C259.414 629.156 259.237 629.081 259.164 628.93C259.091 628.779 259.055 628.513 259.055 628.133V626.711C258.893 627.122 258.659 627.523 258.352 627.914L258.109 627.719C258.594 627.047 258.909 626.396 259.055 625.766L259.836 625.352V627.828C259.836 628.135 259.849 628.339 259.875 628.438C259.906 628.536 259.979 628.586 260.094 628.586C260.328 628.586 260.706 628.245 261.227 627.562L261.453 627.766ZM266.977 627.766C266.346 628.693 265.745 629.156 265.172 629.156C264.979 629.156 264.831 629.094 264.727 628.969C264.628 628.839 264.578 628.56 264.578 628.133V627.477C264.016 628.305 263.62 628.805 263.391 628.977C263.161 629.143 262.945 629.227 262.742 629.227C262.529 629.227 262.362 629.154 262.242 629.008C262.128 628.862 262.07 628.523 262.07 627.992V626.711C261.846 627.211 261.617 627.607 261.383 627.898L261.125 627.719C261.589 627.052 261.904 626.38 262.07 625.703L262.852 625.305V628.133C262.852 628.336 262.862 628.474 262.883 628.547C262.909 628.615 262.974 628.648 263.078 628.648C263.193 628.648 263.341 628.56 263.523 628.383C263.711 628.206 263.932 627.922 264.188 627.531C264.448 627.141 264.578 626.927 264.578 626.891V625.703L265.367 625.305V627.75C265.367 628.073 265.378 628.294 265.398 628.414C265.424 628.529 265.492 628.586 265.602 628.586C265.857 628.586 266.237 628.245 266.742 627.562L266.977 627.766ZM274.656 627.766C274.047 628.693 273.432 629.156 272.812 629.156C272.635 629.156 272.497 629.099 272.398 628.984C272.305 628.865 272.258 628.581 272.258 628.133V626.312C272.258 626.12 272.182 626.023 272.031 626.023C271.943 626.023 271.849 626.06 271.75 626.133C271.651 626.201 271.544 626.305 271.43 626.445C271.32 626.586 271.172 626.818 270.984 627.141C270.797 627.458 270.703 627.641 270.703 627.688V628.922L269.922 629.305V626.453C269.922 626.219 269.841 626.102 269.68 626.102C269.544 626.102 269.396 626.174 269.234 626.32C269.073 626.466 268.888 626.719 268.68 627.078C268.471 627.438 268.367 627.641 268.367 627.688V628.922L267.586 629.305V626.711C267.424 627.122 267.19 627.523 266.883 627.914L266.641 627.719C267.099 627.099 267.414 626.432 267.586 625.719L268.367 625.352V626.969C268.961 625.953 269.521 625.445 270.047 625.445C270.266 625.445 270.43 625.531 270.539 625.703C270.648 625.875 270.703 626.297 270.703 626.969C271.031 626.401 271.32 626.005 271.57 625.781C271.826 625.557 272.091 625.445 272.367 625.445C272.815 625.445 273.039 625.75 273.039 626.359V627.797C273.039 628.161 273.057 628.385 273.094 628.469C273.13 628.547 273.193 628.586 273.281 628.586C273.516 628.586 273.893 628.245 274.414 627.562L274.656 627.766ZM282.664 627.766C282.081 628.693 281.328 629.156 280.406 629.156C279.958 629.156 279.596 629.01 279.32 628.719C279.044 628.422 278.906 628.008 278.906 627.477L278.922 627.414L278.57 627.898L278.312 627.719C279.083 626.583 279.633 625.911 279.961 625.703C280.294 625.49 280.625 625.383 280.953 625.383C281.495 625.383 281.888 625.57 282.133 625.945C282.06 626.232 281.891 626.44 281.625 626.57C281.396 626.003 281.06 625.719 280.617 625.719C280.357 625.719 280.12 625.839 279.906 626.078C279.698 626.318 279.594 626.625 279.594 627C279.594 627.432 279.719 627.805 279.969 628.117C280.219 628.43 280.536 628.586 280.922 628.586C281.453 628.586 281.948 628.25 282.406 627.578L282.664 627.766ZM282.297 627.719C282.974 626.755 283.529 626.133 283.961 625.852C284.393 625.57 284.846 625.43 285.32 625.43C285.773 625.43 286.128 625.549 286.383 625.789C286.643 626.029 286.773 626.362 286.773 626.789C286.773 627.398 286.529 627.956 286.039 628.461C285.549 628.961 284.979 629.211 284.328 629.211C283.906 629.211 283.568 629.086 283.312 628.836C283.062 628.581 282.938 628.258 282.938 627.867C282.938 627.659 282.953 627.471 282.984 627.305C282.906 627.393 282.763 627.596 282.555 627.914L282.297 627.719ZM284.836 628.695C285.232 628.695 285.547 628.552 285.781 628.266C286.016 627.979 286.133 627.599 286.133 627.125C286.133 626.714 286.023 626.393 285.805 626.164C285.586 625.93 285.297 625.812 284.938 625.812C284.557 625.812 284.253 625.951 284.023 626.227C283.799 626.503 283.688 626.888 283.688 627.383C283.688 628.258 284.07 628.695 284.836 628.695ZM287.656 627.766C287.24 628.359 286.846 628.753 286.477 628.945C286.107 629.133 285.737 629.247 285.367 629.289L285.305 629.109C286.164 628.917 286.862 628.406 287.398 627.578L287.656 627.766ZM293.008 627.766C292.378 628.693 291.776 629.156 291.203 629.156C291.016 629.156 290.872 629.096 290.773 628.977C290.674 628.852 290.625 628.57 290.625 628.133V626.344C290.625 626.068 290.539 625.93 290.367 625.93C290.284 625.93 290.195 625.961 290.102 626.023C290.013 626.086 289.917 626.18 289.812 626.305C289.708 626.424 289.56 626.628 289.367 626.914C289.18 627.195 289.086 627.352 289.086 627.383V628.789L288.305 629.289V626.664C288.143 627.076 287.898 627.492 287.57 627.914L287.328 627.719C287.854 626.979 288.185 626.312 288.32 625.719L289.086 625.352V626.805C289.466 626.253 289.773 625.883 290.008 625.695C290.242 625.508 290.479 625.414 290.719 625.414C290.938 625.414 291.107 625.492 291.227 625.648C291.346 625.805 291.406 626.19 291.406 626.805V627.852C291.406 628.133 291.417 628.326 291.438 628.43C291.464 628.534 291.529 628.586 291.633 628.586C291.888 628.586 292.266 628.245 292.766 627.562L293.008 627.766ZM298.336 627.766C297.706 628.693 297.104 629.156 296.531 629.156C296.344 629.156 296.201 629.096 296.102 628.977C296.003 628.852 295.953 628.57 295.953 628.133V626.344C295.953 626.068 295.867 625.93 295.695 625.93C295.612 625.93 295.523 625.961 295.43 626.023C295.341 626.086 295.245 626.18 295.141 626.305C295.036 626.424 294.888 626.628 294.695 626.914C294.508 627.195 294.414 627.352 294.414 627.383V628.789L293.633 629.289V626.664C293.471 627.076 293.227 627.492 292.898 627.914L292.656 627.719C293.182 626.979 293.513 626.312 293.648 625.719L294.414 625.352V626.805C294.794 626.253 295.102 625.883 295.336 625.695C295.57 625.508 295.807 625.414 296.047 625.414C296.266 625.414 296.435 625.492 296.555 625.648C296.674 625.805 296.734 626.19 296.734 626.805V627.852C296.734 628.133 296.745 628.326 296.766 628.43C296.792 628.534 296.857 628.586 296.961 628.586C297.216 628.586 297.594 628.245 298.094 627.562L298.336 627.766ZM302.492 627.766C302.185 628.266 301.849 628.63 301.484 628.859C301.12 629.083 300.641 629.195 300.047 629.195C299.615 629.195 299.271 629.068 299.016 628.812C298.766 628.552 298.641 628.188 298.641 627.719C298.641 627.594 298.651 627.461 298.672 627.32C298.484 627.56 298.341 627.753 298.242 627.898L297.984 627.719C298.661 626.76 299.182 626.133 299.547 625.836C299.911 625.534 300.286 625.383 300.672 625.383C300.885 625.383 301.06 625.445 301.195 625.57C301.336 625.695 301.406 625.857 301.406 626.055C301.406 626.732 300.81 627.398 299.617 628.055C299.779 628.43 300.115 628.617 300.625 628.617C300.87 628.617 301.141 628.529 301.438 628.352C301.74 628.174 302.013 627.917 302.258 627.578L302.492 627.766ZM299.469 627.75C300.333 627.328 300.766 626.859 300.766 626.344C300.766 626.188 300.721 626.06 300.633 625.961C300.549 625.862 300.435 625.812 300.289 625.812C300.023 625.812 299.799 625.935 299.617 626.18C299.435 626.424 299.344 626.719 299.344 627.062C299.344 627.25 299.365 627.409 299.406 627.539C299.448 627.664 299.469 627.734 299.469 627.75ZM306.492 627.766C305.909 628.693 305.156 629.156 304.234 629.156C303.786 629.156 303.424 629.01 303.148 628.719C302.872 628.422 302.734 628.008 302.734 627.477L302.75 627.414L302.398 627.898L302.141 627.719C302.911 626.583 303.461 625.911 303.789 625.703C304.122 625.49 304.453 625.383 304.781 625.383C305.323 625.383 305.716 625.57 305.961 625.945C305.888 626.232 305.719 626.44 305.453 626.57C305.224 626.003 304.888 625.719 304.445 625.719C304.185 625.719 303.948 625.839 303.734 626.078C303.526 626.318 303.422 626.625 303.422 627C303.422 627.432 303.547 627.805 303.797 628.117C304.047 628.43 304.365 628.586 304.75 628.586C305.281 628.586 305.776 628.25 306.234 627.578L306.492 627.766ZM309.977 627.75C309.388 628.688 308.766 629.156 308.109 629.156C307.797 629.156 307.602 629.083 307.523 628.938C307.445 628.786 307.406 628.547 307.406 628.219V626.328C307.057 626.927 306.716 627.451 306.383 627.898L306.125 627.719C306.318 627.432 306.482 627.182 306.617 626.969C306.753 626.755 306.917 626.477 307.109 626.133C307.307 625.784 307.406 625.589 307.406 625.547V622.344L308.188 621.578V624.555L309.391 622.664L309.695 622.891L308.188 625.273V627.672C308.188 628.036 308.203 628.281 308.234 628.406C308.266 628.526 308.352 628.586 308.492 628.586C308.846 628.586 309.268 628.24 309.758 627.547L309.977 627.75ZM311.656 623.828L311.109 624.523L310.555 623.828L311.109 623.156L311.656 623.828ZM313 627.766C312.703 628.214 312.398 628.557 312.086 628.797C311.773 629.036 311.492 629.156 311.242 629.156C310.961 629.156 310.784 629.081 310.711 628.93C310.638 628.779 310.602 628.513 310.602 628.133V626.711C310.44 627.122 310.206 627.523 309.898 627.914L309.656 627.719C310.141 627.047 310.456 626.396 310.602 625.766L311.383 625.352V627.828C311.383 628.135 311.396 628.339 311.422 628.438C311.453 628.536 311.526 628.586 311.641 628.586C311.875 628.586 312.253 628.245 312.773 627.562L313 627.766ZM314.719 623.961C314.844 623.888 315.01 623.852 315.219 623.852C315.63 623.852 315.984 624.029 316.281 624.383C316.583 624.737 316.734 625.182 316.734 625.719C316.734 626.958 316.057 628.138 314.703 629.258L314.609 629.195C314.63 629.034 314.641 628.893 314.641 628.773C314.641 628.294 314.336 627.633 313.727 626.789C313.607 626.909 313.456 627.109 313.273 627.391L312.914 627.93L312.672 627.719C312.766 627.599 312.888 627.414 313.039 627.164C313.19 626.909 313.307 626.721 313.391 626.602C313.661 626.232 313.823 625.846 313.875 625.445H313.984C314.036 625.716 314.214 626.07 314.516 626.508C314.818 626.945 315.003 627.281 315.07 627.516C315.143 627.745 315.18 627.964 315.18 628.172V628.391C316.003 627.547 316.414 626.651 316.414 625.703C316.414 625.349 316.328 625.07 316.156 624.867C315.984 624.659 315.76 624.555 315.484 624.555C315.276 624.555 315.076 624.607 314.883 624.711C314.773 624.492 314.719 624.242 314.719 623.961ZM317.359 627.766C316.792 628.682 316.089 629.18 315.25 629.258L315.195 629.109C315.576 629.021 315.896 628.875 316.156 628.672C316.417 628.464 316.732 628.099 317.102 627.578L317.359 627.766ZM319.016 623.828L318.469 624.523L317.914 623.828L318.469 623.156L319.016 623.828ZM320.359 627.766C320.062 628.214 319.758 628.557 319.445 628.797C319.133 629.036 318.852 629.156 318.602 629.156C318.32 629.156 318.143 629.081 318.07 628.93C317.997 628.779 317.961 628.513 317.961 628.133V626.711C317.799 627.122 317.565 627.523 317.258 627.914L317.016 627.719C317.5 627.047 317.815 626.396 317.961 625.766L318.742 625.352V627.828C318.742 628.135 318.755 628.339 318.781 628.438C318.812 628.536 318.885 628.586 319 628.586C319.234 628.586 319.612 628.245 320.133 627.562L320.359 627.766ZM323.867 627.75C323.279 628.688 322.656 629.156 322 629.156C321.688 629.156 321.492 629.083 321.414 628.938C321.336 628.786 321.297 628.547 321.297 628.219V626.328C320.948 626.927 320.607 627.451 320.273 627.898L320.016 627.719C320.208 627.432 320.372 627.182 320.508 626.969C320.643 626.755 320.807 626.477 321 626.133C321.198 625.784 321.297 625.589 321.297 625.547V622.344L322.078 621.578V624.555L323.281 622.664L323.586 622.891L322.078 625.273V627.672C322.078 628.036 322.094 628.281 322.125 628.406C322.156 628.526 322.242 628.586 322.383 628.586C322.737 628.586 323.159 628.24 323.648 627.547L323.867 627.75ZM329.5 627.625C328.943 628.536 328.414 629.031 327.914 629.109V631.594C327.914 632.208 327.721 632.724 327.336 633.141C326.956 633.557 326.482 633.766 325.914 633.766C325.591 633.766 325.271 633.682 324.953 633.516C324.635 633.349 324.391 633.117 324.219 632.82L324.875 632.086L324.984 632.188C324.964 632.318 324.953 632.417 324.953 632.484C324.953 632.729 325.057 632.948 325.266 633.141C325.479 633.333 325.737 633.43 326.039 633.43C326.367 633.43 326.622 633.302 326.805 633.047C326.992 632.797 327.086 632.445 327.086 631.992V627.625C326.659 628.229 326.32 628.643 326.07 628.867C325.82 629.086 325.576 629.195 325.336 629.195C324.836 629.195 324.586 628.922 324.586 628.375V626.539C324.388 626.992 324.133 627.435 323.82 627.867L323.594 627.656C324.099 626.865 324.43 626.203 324.586 625.672L325.422 625.258V628.344C325.422 628.526 325.495 628.617 325.641 628.617H325.719C325.911 628.617 326.367 628.073 327.086 626.984V625.672L327.914 625.258V628.648C328.268 628.617 328.711 628.211 329.242 627.43L329.5 627.625ZM337.977 627.812C338.404 627.38 338.617 626.966 338.617 626.57C338.617 626.273 338.516 625.909 338.312 625.477C338.115 625.044 337.802 624.576 337.375 624.07C336.953 623.56 336.669 623.128 336.523 622.773C336.383 622.414 336.312 622.057 336.312 621.703C336.312 620.896 336.667 620.167 337.375 619.516C338.089 618.865 338.982 618.539 340.055 618.539C340.919 618.539 341.615 618.758 342.141 619.195C342.672 619.628 342.938 620.193 342.938 620.891C342.938 621.547 342.701 622.12 342.227 622.609C341.758 623.094 341.216 623.336 340.602 623.336C340.112 623.336 339.721 623.203 339.43 622.938C339.143 622.672 339 622.326 339 621.898C339 621.253 339.336 620.766 340.008 620.438L340.117 620.602C339.763 620.888 339.586 621.229 339.586 621.625C339.586 621.964 339.716 622.263 339.977 622.523C340.242 622.779 340.555 622.906 340.914 622.906C341.305 622.906 341.633 622.755 341.898 622.453C342.164 622.146 342.297 621.768 342.297 621.32C342.297 620.685 342.029 620.135 341.492 619.672C340.956 619.203 340.305 618.969 339.539 618.969C338.836 618.969 338.258 619.177 337.805 619.594C337.352 620.005 337.125 620.49 337.125 621.047C337.125 621.708 337.466 622.44 338.148 623.242C338.93 624.148 339.32 625.034 339.32 625.898C339.32 626.596 339.01 627.284 338.391 627.961C339.375 628.378 340.143 628.586 340.695 628.586C341.32 628.586 341.911 628.185 342.469 627.383L342.711 627.578C342.367 628.12 341.979 628.518 341.547 628.773C341.115 629.029 340.557 629.156 339.875 629.156C339.328 629.156 338.549 628.956 337.539 628.555C336.763 628.992 336.034 629.211 335.352 629.211C334.93 629.211 334.576 629.128 334.289 628.961C334.003 628.794 333.859 628.589 333.859 628.344C333.859 628.068 334.039 627.831 334.398 627.633C334.758 627.435 335.193 627.336 335.703 627.336C336.229 627.336 336.987 627.495 337.977 627.812ZM337.109 628.391C336.271 627.974 335.641 627.766 335.219 627.766C334.677 627.766 334.406 627.906 334.406 628.188C334.406 628.344 334.529 628.49 334.773 628.625C335.018 628.755 335.302 628.82 335.625 628.82C336.083 628.82 336.578 628.677 337.109 628.391ZM346.07 627.75C345.482 628.688 344.859 629.156 344.203 629.156C343.891 629.156 343.695 629.083 343.617 628.938C343.539 628.786 343.5 628.547 343.5 628.219V626.328C343.151 626.927 342.81 627.451 342.477 627.898L342.219 627.719C342.411 627.432 342.576 627.182 342.711 626.969C342.846 626.755 343.01 626.477 343.203 626.133C343.401 625.784 343.5 625.589 343.5 625.547V622.344L344.281 621.578V624.555L345.484 622.664L345.789 622.891L344.281 625.273V627.672C344.281 628.036 344.297 628.281 344.328 628.406C344.359 628.526 344.445 628.586 344.586 628.586C344.94 628.586 345.362 628.24 345.852 627.547L346.07 627.75ZM346.836 622.758C346.836 622.44 346.93 622.19 347.117 622.008C347.305 621.826 347.547 621.734 347.844 621.734C348.484 621.734 349.052 622.06 349.547 622.711C350.047 623.362 350.297 624.195 350.297 625.211C350.297 626.326 350.029 627.263 349.492 628.023C348.956 628.779 348.344 629.156 347.656 629.156C347.271 629.156 346.958 629.039 346.719 628.805C346.479 628.565 346.359 628.279 346.359 627.945V627.672C346.359 627.526 346.365 627.43 346.375 627.383L346.008 627.898L345.75 627.719C346.776 626.13 347.742 625.336 348.648 625.336C349.133 625.336 349.505 625.539 349.766 625.945C349.797 625.716 349.812 625.497 349.812 625.289C349.812 624.591 349.596 623.956 349.164 623.383C348.732 622.81 348.229 622.523 347.656 622.523C347.365 622.523 347.091 622.602 346.836 622.758ZM348.07 628.586C348.466 628.586 348.823 628.388 349.141 627.992C349.464 627.591 349.625 627.154 349.625 626.68C349.625 626.367 349.534 626.122 349.352 625.945C349.174 625.763 348.935 625.672 348.633 625.672C348.232 625.672 347.878 625.857 347.57 626.227C347.263 626.596 347.109 627.003 347.109 627.445C347.109 627.784 347.198 628.06 347.375 628.273C347.552 628.482 347.784 628.586 348.07 628.586ZM350.93 627.766C350.357 628.672 349.596 629.18 348.648 629.289L348.578 629.109C349.427 628.917 350.128 628.406 350.68 627.578L350.93 627.766ZM352.867 628.633L352.164 629.383L351.461 628.664L352.164 627.883L352.867 628.633Z" fill="white"/>
</g>
<defs>
<clipPath id="clip0_17_187">
<rect width="1400" height="800" fill="white"/>
</clipPath>
<clipPath id="clip1_17_187">
<rect width="1400" height="800" fill="white" transform="translate(56 115)"/>
</clipPath>
</defs>
</svg>
